<?xml version="1.0" encoding="UTF-8" standalone="no"?>
<!-- Created with Inkscape (http://www.inkscape.org/) -->

<svg
   xmlns:dc="http://purl.org/dc/elements/1.1/"
   xmlns:cc="http://creativecommons.org/ns#"
   xmlns:rdf="http://www.w3.org/1999/02/22-rdf-syntax-ns#"
   xmlns:svg="http://www.w3.org/2000/svg"
   xmlns="http://www.w3.org/2000/svg"
   xmlns:sodipodi="http://sodipodi.sourceforge.net/DTD/sodipodi-0.dtd"
   xmlns:inkscape="http://www.inkscape.org/namespaces/inkscape"
   width="160.79199mm"
   height="162.59264mm"
   viewBox="0 0 569.73541 576.11564"
   id="svg4177"
   version="1.1"
   inkscape:version="0.91 r13725"
   sodipodi:docname="arcamo.svg">
  <defs
     id="defs4179" />
  <sodipodi:namedview
     id="base"
     pagecolor="#ffffff"
     bordercolor="#666666"
     borderopacity="1.0"
     inkscape:pageopacity="0.0"
     inkscape:pageshadow="2"
     inkscape:zoom="0.7"
     inkscape:cx="111.53635"
     inkscape:cy="114.62039"
     inkscape:document-units="px"
     inkscape:current-layer="layer1"
     showgrid="false"
     inkscape:window-width="1918"
     inkscape:window-height="1051"
     inkscape:window-x="0"
     inkscape:window-y="1"
     inkscape:window-maximized="1"
     fit-margin-top="0"
     fit-margin-left="0"
     fit-margin-right="0"
     fit-margin-bottom="0" />
  <metadata
     id="metadata4182">
    <rdf:RDF>
      <cc:Work
         rdf:about="">
        <dc:format>image/svg+xml</dc:format>
        <dc:type
           rdf:resource="http://purl.org/dc/dcmitype/StillImage" />
        <dc:title></dc:title>
      </cc:Work>
    </rdf:RDF>
  </metadata>
  <g
     inkscape:label="Camada 1"
     inkscape:groupmode="layer"
     id="layer1"
     transform="translate(-59.143176,-159.75657)">
    <g
       id="g4945"
       transform="matrix(5.1310037,0,0,5.1310037,-1262.2365,-2022.7606)">
      <path
         inkscape:connector-curvature="0"
         style="opacity:1;fill:#311b92;fill-opacity:1;fill-rule:nonzero;stroke:none;stroke-width:1;stroke-linecap:round;stroke-linejoin:round;stroke-miterlimit:4;stroke-dasharray:none;stroke-dashoffset:0;stroke-opacity:1"
         d="m 348.9078,495.78404 4.65525,-10.36328 c -5.9596,-15.79319 -12.76767,-31.80423 -35.13597,-37.48438 l -0.32859,16.43555 c 19.67742,1.1499 27.05657,22.23136 30.80931,31.41211 z"
         id="path17657" />
      <path
         inkscape:connector-curvature="0"
         style="opacity:1;fill:#311b92;fill-opacity:1;fill-rule:nonzero;stroke:none;stroke-width:0.92159337;stroke-linecap:round;stroke-linejoin:round;stroke-miterlimit:4;stroke-dasharray:none;stroke-dashoffset:0;stroke-opacity:1"
         d="m 307.77748,427.35872 9.87037,0 -1.19156,95.54305 -7.487,0 z"
         id="path8100" />
      <path
         inkscape:connector-curvature="0"
         id="rect17555"
         d="m 307.77748,425.35872 9.87037,0 -2.19171,97.04269 -5.48695,0 z"
         style="opacity:1;fill:#ff3d00;fill-opacity:1;fill-rule:nonzero;stroke:none;stroke-width:0.92159337;stroke-linecap:round;stroke-linejoin:round;stroke-miterlimit:4;stroke-dasharray:none;stroke-dashoffset:0;stroke-opacity:1" />
      <path
         inkscape:connector-curvature="0"
         id="rect17558"
         d="m 348.9078,493.78404 4.65525,-10.36328 c -5.9596,-15.79319 -12.76767,-31.80423 -35.13597,-37.48438 l -0.32859,16.43555 c 19.67742,1.1499 27.05657,22.23136 30.80931,31.41211 z"
         style="opacity:1;fill:#ff3d00;fill-opacity:1;fill-rule:nonzero;stroke:none;stroke-width:1;stroke-linecap:round;stroke-linejoin:round;stroke-miterlimit:4;stroke-dasharray:none;stroke-dashoffset:0;stroke-opacity:1" />
      <path
         inkscape:connector-curvature="0"
         style="opacity:1;fill:#311b92;fill-opacity:1;fill-rule:nonzero;stroke:none;stroke-width:1;stroke-linecap:round;stroke-linejoin:round;stroke-miterlimit:4;stroke-dasharray:none;stroke-dashoffset:0;stroke-opacity:1"
         d="m 342.42254,510.21763 5.20319,-11.58398 c -5.25899,-10.69406 -12.92838,-29.45752 -29.66641,-30.97826 l -0.32876,13.38477 c 15.12159,0.67376 21.3058,20.77452 24.79198,29.17747 z"
         id="path17659" />
      <path
         inkscape:connector-curvature="0"
         id="rect17561"
         d="m 342.42254,508.21763 5.20319,-11.58398 c -5.25899,-10.69406 -12.92838,-29.45752 -29.66641,-30.97826 l -0.32876,13.38477 c 15.12159,0.67376 21.3058,20.77452 24.79198,29.17747 z"
         style="opacity:1;fill:#ff3d00;fill-opacity:1;fill-rule:nonzero;stroke:none;stroke-width:1;stroke-linecap:round;stroke-linejoin:round;stroke-miterlimit:4;stroke-dasharray:none;stroke-dashoffset:0;stroke-opacity:1" />
      <path
         inkscape:connector-curvature="0"
         style="opacity:1;fill:#311b92;fill-opacity:1;fill-rule:nonzero;stroke:none;stroke-width:1;stroke-linecap:round;stroke-linejoin:round;stroke-miterlimit:4;stroke-dasharray:none;stroke-dashoffset:0;stroke-opacity:1"
         d="m 336.8191,520.69224 4.24431,-7.44922 c -1.96016,-5.21413 -8.92801,-27.80583 -23.46019,-27.91015 l -0.32881,11.88867 c 10.88721,-1.11135 17.23996,18.18427 19.54469,23.4707 z"
         id="path17661" />
      <path
         inkscape:connector-curvature="0"
         id="rect17564"
         d="m 336.8191,518.69224 4.24431,-7.44922 c -1.96016,-5.21413 -8.92801,-27.80583 -23.46019,-27.91015 l -0.32881,11.88867 c 10.88721,-1.11135 17.23996,18.18427 19.54469,23.4707 z"
         style="opacity:1;fill:#ff3d00;fill-opacity:1;fill-rule:nonzero;stroke:none;stroke-width:1;stroke-linecap:round;stroke-linejoin:round;stroke-miterlimit:4;stroke-dasharray:none;stroke-dashoffset:0;stroke-opacity:1" />
      <path
         inkscape:connector-curvature="0"
         id="path17663"
         d="m 276.56111,495.78404 -4.65526,-10.36328 c 5.9596,-15.79319 12.76767,-31.80423 35.13598,-37.48438 l 0.32858,16.43555 c -19.67742,1.1499 -27.05657,22.23136 -30.8093,31.41211 z"
         style="opacity:1;fill:#311b92;fill-opacity:1;fill-rule:nonzero;stroke:none;stroke-width:1;stroke-linecap:round;stroke-linejoin:round;stroke-miterlimit:4;stroke-dasharray:none;stroke-dashoffset:0;stroke-opacity:1" />
      <path
         inkscape:connector-curvature="0"
         style="opacity:1;fill:#ff3d00;fill-opacity:1;fill-rule:nonzero;stroke:none;stroke-width:1;stroke-linecap:round;stroke-linejoin:round;stroke-miterlimit:4;stroke-dasharray:none;stroke-dashoffset:0;stroke-opacity:1"
         d="m 276.56111,493.78404 -4.65526,-10.36328 c 5.9596,-15.79319 12.76767,-31.80423 35.13598,-37.48438 l 0.32858,16.43555 c -19.67742,1.1499 -27.05657,22.23136 -30.8093,31.41211 z"
         id="path17626" />
      <path
         inkscape:connector-curvature="0"
         id="path17665"
         d="m 283.04636,510.21763 -5.20319,-11.58398 c 5.259,-10.69406 12.92839,-29.45752 29.66641,-30.97826 l 0.32876,13.38477 c -15.12159,0.67376 -21.3058,20.77452 -24.79198,29.17747 z"
         style="opacity:1;fill:#311b92;fill-opacity:1;fill-rule:nonzero;stroke:none;stroke-width:1;stroke-linecap:round;stroke-linejoin:round;stroke-miterlimit:4;stroke-dasharray:none;stroke-dashoffset:0;stroke-opacity:1" />
      <path
         inkscape:connector-curvature="0"
         style="opacity:1;fill:#ff3d00;fill-opacity:1;fill-rule:nonzero;stroke:none;stroke-width:1;stroke-linecap:round;stroke-linejoin:round;stroke-miterlimit:4;stroke-dasharray:none;stroke-dashoffset:0;stroke-opacity:1"
         d="m 283.04636,508.21763 -5.20319,-11.58398 c 5.259,-10.69406 12.92839,-29.45752 29.66641,-30.97826 l 0.32876,13.38477 c -15.12159,0.67376 -21.3058,20.77452 -24.79198,29.17747 z"
         id="path17628" />
      <path
         inkscape:connector-curvature="0"
         id="path17667"
         d="m 288.6498,520.69224 -4.24431,-7.44922 c 1.96017,-5.21413 8.92801,-27.80583 23.46019,-27.91015 l 0.32881,11.88867 c -10.88721,-1.11135 -17.23996,18.18427 -19.54469,23.4707 z"
         style="opacity:1;fill:#311b92;fill-opacity:1;fill-rule:nonzero;stroke:none;stroke-width:1;stroke-linecap:round;stroke-linejoin:round;stroke-miterlimit:4;stroke-dasharray:none;stroke-dashoffset:0;stroke-opacity:1" />
      <path
         inkscape:connector-curvature="0"
         style="opacity:1;fill:#ff3d00;fill-opacity:1;fill-rule:nonzero;stroke:none;stroke-width:1;stroke-linecap:round;stroke-linejoin:round;stroke-miterlimit:4;stroke-dasharray:none;stroke-dashoffset:0;stroke-opacity:1"
         d="m 288.6498,518.69224 -4.24431,-7.44922 c 1.96017,-5.21413 8.92801,-27.80583 23.46019,-27.91015 l 0.32881,11.88867 c -10.88721,-1.11135 -17.23996,18.18427 -19.54469,23.4707 z"
         id="path17630" />
    </g>
    <g
       style="font-style:normal;font-weight:normal;font-size:42.01562881px;line-height:125%;font-family:sans-serif;letter-spacing:0px;word-spacing:0px;fill:#311b92;fill-opacity:1;stroke:none;stroke-width:1px;stroke-linecap:butt;stroke-linejoin:miter;stroke-opacity:1"
       id="text4961"
       transform="matrix(1.9827899,0,0,1.9827899,-654.54002,-240.98129)">
      <path
         inkscape:connector-curvature="0"
         d="m 393.46736,468.42315 -13.94919,0 q -7.05863,0 -9.15941,1.51256 -0.88233,0.71427 -1.47055,1.63861 -0.5462,0.88233 -0.71426,1.84869 l 25.29341,0 0,-4.99986 z m 7.73087,24.24302 -7.73087,0 0,-12.26857 -25.7976,0 0,12.26857 -7.73087,0 0,-15.92393 q 0,-3.69737 1.05039,-6.59645 1.05039,-2.94109 3.06714,-4.95784 2.05876,-2.05877 4.99986,-3.10916 2.94109,-1.09241 6.7225,-1.09241 l 25.41945,0 0,31.67979 z"
         style="fill:#ff3d00;fill-opacity:1"
         id="path4982" />
      <path
         inkscape:connector-curvature="0"
         d="m 418.39247,473.25495 17.98269,0 q 2.35288,0 3.65536,-1.21846 1.3445,-1.26046 1.72264,-3.61334 l -26.93202,0 0,24.24302 -7.73087,0 0,-31.67979 42.09966,0 0,6.05025 q 0,12.01647 -11.68035,13.23493 l 12.05849,12.39461 -9.32747,0 -12.22655,-12.26857 -9.62158,0 0,-7.14265 z"
         style="fill:#ff3d00;fill-opacity:1"
         id="path4984" />
      <path
         inkscape:connector-curvature="0"
         d="m 494.01076,492.66617 -39.57873,0 0,-15.92393 q 0,-3.69737 1.05039,-6.59645 1.05039,-2.94109 3.06715,-4.95784 2.05876,-2.05877 4.99985,-3.10916 2.9411,-1.09241 6.72251,-1.09241 l 23.73883,0 0,7.43677 -23.57077,0 q -8.27708,0 -8.27708,8.48716 l 0,8.23506 31.84785,0 0,7.5208 z"
         style="fill:#ff3d00;fill-opacity:1"
         id="path4986" />
      <path
         inkscape:connector-curvature="0"
         d="m 532.23382,468.42315 -13.94919,0 q -7.05862,0 -9.1594,1.51256 -0.88233,0.71427 -1.47055,1.63861 -0.5462,0.88233 -0.71427,1.84869 l 25.29341,0 0,-4.99986 z m 7.73088,24.24302 -7.73088,0 0,-12.26857 -25.79759,0 0,12.26857 -7.73088,0 0,-15.92393 q 0,-3.69737 1.05039,-6.59645 1.05039,-2.94109 3.06714,-4.95784 2.05877,-2.05877 4.99986,-3.10916 2.94109,-1.09241 6.7225,-1.09241 l 25.41946,0 0,31.67979 z"
         style="fill:#ff3d00;fill-opacity:1"
         id="path4988" />
      <path
         inkscape:connector-curvature="0"
         d="m 565.30996,471.57432 7.73088,0 0,21.09185 -7.73088,0 0,-21.09185 z m -19.70533,-10.58794 30.79746,0 q 9.28545,0 13.19291,8.02499 l 11.80639,23.6548 -8.52917,0 -11.05011,-21.04983 q -0.84032,-1.5966 -2.39489,-2.39489 -1.55458,-0.7983 -3.99149,-0.7983 l -22.14224,0 0,24.24302 -7.68886,0 0,-31.67979 z"
         style="font-style:normal;font-variant:normal;font-weight:normal;font-stretch:normal;font-family:Xirod;-inkscape-font-specification:Xirod;fill:#311b92;fill-opacity:1"
         id="path4990" />
      <path
         inkscape:connector-curvature="0"
         d="m 639.54829,468.42315 -18.36083,0 q -2.39489,0 -3.99148,0.42016 -1.5966,0.42015 -2.56296,1.42853 -0.92434,0.96636 -1.3445,2.60497 -0.37814,1.59659 -0.37814,4.0335 l 0,8.23506 18.36083,0 q 2.35288,0 3.90746,-0.37814 1.59659,-0.37814 2.56295,-1.3445 0.96636,-0.96636 1.38652,-2.56295 0.42015,-1.63861 0.42015,-4.11754 l 0,-8.31909 z m 7.73088,-7.43677 0,15.92393 q 0,3.69737 -1.05039,6.63847 -1.05039,2.89908 -3.10916,4.95784 -2.01675,2.01675 -4.95784,3.10916 -2.9411,1.05039 -6.7225,1.05039 l -26.25977,0 0,-15.92393 q 0,-3.61334 1.05039,-6.51242 1.09241,-2.94109 3.15117,-4.95784 2.05877,-2.05877 4.95785,-3.15117 2.94109,-1.13443 6.68048,-1.13443 l 26.25977,0 z"
         style="fill:#ff3d00;fill-opacity:1"
         id="path4992" />
    </g>
  </g>
</svg>
