<?xml version="1.0" encoding="UTF-8" standalone="no"?>
<!-- Created with Inkscape (http://www.inkscape.org/) -->

<svg
   xmlns:dc="http://purl.org/dc/elements/1.1/"
   xmlns:cc="http://creativecommons.org/ns#"
   xmlns:rdf="http://www.w3.org/1999/02/22-rdf-syntax-ns#"
   xmlns:svg="http://www.w3.org/2000/svg"
   xmlns="http://www.w3.org/2000/svg"
   xmlns:sodipodi="http://sodipodi.sourceforge.net/DTD/sodipodi-0.dtd"
   xmlns:inkscape="http://www.inkscape.org/namespaces/inkscape"
   id="svg2"
   version="1.1"
   inkscape:version="0.48.4 r9939"
   width="3510"
   height="883.92875"
   xml:space="preserve"
   sodipodi:docname="logo_cargobr_cmyq_light.ai"><metadata
     id="metadata8"><rdf:RDF><cc:Work
         rdf:about=""><dc:format>image/svg+xml</dc:format><dc:type
           rdf:resource="http://purl.org/dc/dcmitype/StillImage" /><dc:title></dc:title></cc:Work></rdf:RDF></metadata><defs
     id="defs6"><clipPath
       clipPathUnits="userSpaceOnUse"
       id="clipPath16"><path
         d="m 0,707.143 2808,0 L 2808,0 0,0 0,707.143 z"
         id="path18" /></clipPath></defs><sodipodi:namedview
     pagecolor="#ffffff"
     bordercolor="#666666"
     borderopacity="1"
     objecttolerance="10"
     gridtolerance="10"
     guidetolerance="10"
     inkscape:pageopacity="0"
     inkscape:pageshadow="2"
     inkscape:window-width="1366"
     inkscape:window-height="723"
     id="namedview4"
     showgrid="false"
     inkscape:zoom="0.11823362"
     inkscape:cx="1771.9157"
     inkscape:cy="441.96439"
     inkscape:window-x="0"
     inkscape:window-y="23"
     inkscape:window-maximized="1"
     inkscape:current-layer="g10" /><g
     id="g10"
     inkscape:groupmode="layer"
     inkscape:label="logo_cargobr_cmyq_light"
     transform="matrix(1.25,0,0,-1.25,0,883.92875)"><g
       id="g12"><g
         id="g14"
         clip-path="url(#clipPath16)"><g
           id="g20"
           transform="translate(923.0356,284.9966)"><path
             d="m 0,0 c 1.321,0 2.453,-0.467 3.387,-1.394 l 7.97,-8.568 c -5.851,-6.251 -12.222,-11.864 -19.128,-16.843 -6.916,-4.984 -14.455,-9.236 -22.626,-12.755 -8.171,-3.52 -17.141,-6.246 -26.899,-8.172 -9.771,-1.926 -20.498,-2.887 -32.19,-2.887 -19.529,0 -37.434,3.42 -53.704,10.265 -16.281,6.839 -30.232,16.535 -41.854,29.092 -11.631,12.556 -20.694,27.732 -27.206,45.539 -6.511,17.802 -9.763,37.597 -9.763,59.39 0,21.386 3.352,40.921 10.062,58.588 6.713,17.669 16.143,32.851 28.299,45.541 12.163,12.689 26.707,22.521 43.647,29.498 16.941,6.972 35.638,10.462 56.098,10.462 10.235,0 19.595,-0.764 28.104,-2.291 8.498,-1.533 16.442,-3.719 23.812,-6.579 7.377,-2.858 14.317,-6.411 20.829,-10.663 6.511,-4.252 12.883,-9.165 19.133,-14.749 l -6.183,-8.965 c -1.061,-1.592 -2.72,-2.391 -4.978,-2.391 -1.194,0 -2.726,0.699 -4.581,2.091 -1.865,1.394 -4.225,3.12 -7.078,5.181 -2.858,2.059 -6.31,4.317 -10.362,6.777 -4.054,2.458 -8.871,4.712 -14.45,6.778 -5.58,2.058 -12.028,3.785 -19.335,5.179 -7.304,1.398 -15.608,2.092 -24.911,2.092 -17.135,0 -32.884,-2.96 -47.227,-8.865 -14.355,-5.918 -26.712,-14.349 -37.07,-25.311 -10.368,-10.964 -18.439,-24.247 -24.213,-39.862 -5.784,-15.609 -8.669,-33.116 -8.669,-52.511 0,-19.927 2.852,-37.736 8.57,-53.412 5.706,-15.675 13.61,-28.931 23.713,-39.755 10.092,-10.83 22.021,-19.133 35.77,-24.912 13.755,-5.78 28.666,-8.671 44.74,-8.671 10.102,0 19.1,0.66 27.012,1.994 7.898,1.326 15.176,3.318 21.821,5.978 6.644,2.658 12.815,5.91 18.533,9.763 5.708,3.852 11.359,8.371 16.942,13.555 0.66,0.529 1.292,0.961 1.886,1.293 0.6,0.333 1.3,0.5 2.099,0.5"
             style="fill:#525152;fill-opacity:1;fill-rule:nonzero;stroke:none"
             id="path22" /></g><g
           id="g24"
           transform="translate(1018.0889,340.0005)"><path
             d="M 0,0 126.35,0 68.761,142.493 c -0.927,2.258 -1.861,4.818 -2.793,7.676 -0.932,2.853 -1.859,5.878 -2.786,9.066 -0.934,-3.188 -1.866,-6.213 -2.792,-9.066 -0.929,-2.858 -1.86,-5.483 -2.793,-7.871 L 0,0 z m 188.732,-102.436 -15.742,0 c -1.865,0 -3.387,0.5 -4.587,1.494 -1.199,0.997 -2.118,2.291 -2.785,3.885 l -33.283,81.908 -138.506,0 -33.084,-81.908 c -0.533,-1.459 -1.465,-2.72 -2.791,-3.785 -1.329,-1.067 -2.926,-1.594 -4.781,-1.594 l -15.548,0 115.387,281.998 20.333,0 115.387,-281.998 z"
             style="fill:#525152;fill-opacity:1;fill-rule:nonzero;stroke:none"
             id="path26" /></g><g
           id="g28"
           transform="translate(1273.7813,380.2549)"><path
             d="m 0,0 49.025,0 c 12.484,0 23.68,1.5 33.579,4.486 9.896,2.992 18.267,7.278 25.112,12.856 6.843,5.578 12.056,12.285 15.641,20.128 3.592,7.839 5.386,16.675 5.386,26.505 0,20.062 -6.578,34.943 -19.733,44.641 -13.152,9.697 -32.285,14.549 -57.393,14.549 L 0,123.165 0,0 z m 0,-15.141 0,-127.549 -20.327,0 0,281.998 71.944,0 c 32.547,0 56.865,-6.279 72.94,-18.83 16.077,-12.556 24.113,-30.99 24.113,-55.304 0,-10.762 -1.858,-20.6 -5.58,-29.498 C 139.367,26.772 134.021,18.969 127.049,12.258 120.072,5.546 111.668,0.035 101.836,-4.284 92,-8.604 80.911,-11.423 68.555,-12.75 c 3.191,-1.991 6.044,-4.657 8.569,-7.977 l 97.06,-121.963 -17.743,0 c -2.125,0 -3.953,0.4 -5.479,1.194 -1.526,0.799 -3.025,2.126 -4.485,3.984 l -90.28,114.4 c -2.259,2.92 -4.678,4.978 -7.271,6.177 -2.593,1.194 -6.613,1.794 -12.056,1.794 l -36.87,0 z"
             style="fill:#525152;fill-opacity:1;fill-rule:nonzero;stroke:none"
             id="path30" /></g><g
           id="g32"
           transform="translate(1607.5928,250.9146)"><path
             d="m 0,0 c 9.695,0 18.534,0.499 26.503,1.499 7.976,0.994 15.383,2.491 22.226,4.485 6.839,1.993 13.352,4.413 19.53,7.271 6.178,2.853 12.388,6.078 18.632,9.665 l 0,75.931 -54.21,0 c -1.457,0 -2.686,0.465 -3.685,1.398 -0.992,0.927 -1.493,1.992 -1.493,3.186 l 0,11.164 77.926,0 0,-100.25 C 98.382,9.436 91.077,5.051 83.508,1.199 75.931,-2.658 67.826,-5.878 59.192,-8.465 50.55,-11.057 41.254,-13.05 31.289,-14.444 c -9.964,-1.399 -20.859,-2.093 -32.685,-2.093 -20.325,0 -38.895,3.42 -55.704,10.265 -16.807,6.839 -31.223,16.535 -43.245,29.092 -12.023,12.556 -21.354,27.732 -28,45.539 -6.644,17.802 -9.964,37.597 -9.964,59.39 0,21.787 3.32,41.554 9.964,59.288 6.646,17.736 16.076,32.885 28.297,45.441 12.226,12.556 27.074,22.253 44.547,29.098 17.471,6.838 37.032,10.262 58.691,10.262 10.765,0 20.693,-0.732 29.793,-2.191 9.096,-1.466 17.567,-3.625 25.41,-6.48 7.838,-2.858 15.143,-6.377 21.92,-10.562 6.778,-4.185 13.287,-9.003 19.538,-14.449 l -5.387,-8.771 c -1.195,-1.991 -2.86,-2.985 -4.979,-2.985 -1.199,0 -2.326,0.265 -3.394,0.799 -1.991,0.793 -4.877,2.653 -8.663,5.579 -3.79,2.92 -8.904,5.977 -15.347,9.163 -6.447,3.192 -14.518,6.045 -24.214,8.571 -9.703,2.526 -21.46,3.786 -35.276,3.786 -18.334,0 -34.876,-2.92 -49.627,-8.765 -14.74,-5.851 -27.331,-14.222 -37.763,-25.112 -10.43,-10.896 -18.467,-24.186 -24.112,-39.861 -5.651,-15.676 -8.471,-33.278 -8.471,-52.811 0,-19.927 2.853,-37.802 8.57,-53.612 5.708,-15.808 13.718,-29.191 24.013,-40.155 C -74.507,23.02 -62.151,14.615 -47.727,8.771 -33.317,2.925 -17.403,0 0,0"
             style="fill:#525152;fill-opacity:1;fill-rule:nonzero;stroke:none"
             id="path34" /></g><g
           id="g36"
           transform="translate(2011.1543,378.6636)"><path
             d="m 0,0 c 0,19.661 -2.726,37.334 -8.174,53.01 -5.451,15.676 -13.118,28.966 -23.017,39.863 -9.896,10.889 -21.82,19.228 -35.771,25.011 -13.947,5.779 -29.429,8.665 -46.44,8.665 -16.735,0 -32.049,-2.886 -45.931,-8.665 -13.89,-5.783 -25.846,-14.122 -35.876,-25.011 -10.029,-10.897 -17.803,-24.187 -23.316,-39.863 -5.516,-15.676 -8.268,-33.349 -8.268,-53.01 0,-19.8 2.752,-37.502 8.268,-53.112 5.513,-15.614 13.287,-28.864 23.316,-39.761 10.03,-10.891 21.986,-19.201 35.876,-24.906 13.882,-5.718 29.196,-8.571 45.931,-8.571 17.011,0 32.493,2.853 46.44,8.571 13.951,5.705 25.875,14.015 35.771,24.906 9.899,10.897 17.566,24.147 23.017,39.761 C -2.726,-37.502 0,-19.8 0,0 m 21.125,0 c 0,-21.793 -3.256,-41.554 -9.762,-59.29 -6.511,-17.734 -15.684,-32.883 -27.506,-45.439 -11.829,-12.558 -25.976,-22.255 -42.446,-29.098 -16.477,-6.845 -34.749,-10.264 -54.813,-10.264 -19.791,0 -37.929,3.419 -54.402,10.264 -16.477,6.843 -30.625,16.54 -42.45,29.098 -11.829,12.556 -21.026,27.705 -27.604,45.439 -6.578,17.736 -9.863,37.497 -9.863,59.29 0,21.654 3.285,41.354 9.863,59.088 6.578,17.742 15.775,32.885 27.604,45.441 11.825,12.555 25.973,22.286 42.45,29.198 16.473,6.904 34.611,10.362 54.402,10.362 20.064,0 38.336,-3.424 54.813,-10.262 16.47,-6.845 30.617,-16.575 42.446,-29.198 C -4.321,92.006 4.852,76.83 11.363,59.088 17.869,41.354 21.125,21.654 21.125,0"
             style="fill:#525152;fill-opacity:1;fill-rule:nonzero;stroke:none"
             id="path38" /></g><g
           id="g40"
           transform="translate(2109.4082,373.812)"><path
             d="m 0,0 -20.18,-122.703 68.409,-0.456 c 24.025,-0.16 43.042,5.241 57.073,16.215 14.016,10.968 22.669,26.467 25.969,46.511 1.515,9.187 1.236,17.475 -0.829,24.835 -2.071,7.37 -5.759,13.644 -11.084,18.834 -5.32,5.184 -12.247,9.181 -20.79,11.983 -8.541,2.804 -18.534,4.247 -29.966,4.325 L 0,0 z M 2.537,15.443 61.7,15.049 c 12.585,-0.084 23.629,1.559 33.121,4.928 9.492,3.376 17.564,7.855 24.203,13.444 6.647,5.585 11.902,11.942 15.776,19.062 3.874,7.116 6.429,14.455 7.671,21.999 3.231,19.628 -0.145,34.526 -10.106,44.69 -9.976,10.168 -27.095,15.326 -51.375,15.487 L 22.216,135.053 2.537,15.443 z m -45.153,-154.899 47.915,291.312 78.434,-0.522 c 15.54,-0.1 28.732,-1.832 39.561,-5.202 10.83,-3.374 19.438,-8.275 25.839,-14.704 6.406,-6.433 10.679,-14.26 12.835,-23.479 2.14,-9.215 2.257,-19.668 0.342,-31.33 -1.265,-7.682 -3.74,-15.094 -7.414,-22.209 -3.689,-7.121 -8.394,-13.683 -14.14,-19.696 -5.745,-6 -12.429,-11.218 -20.031,-15.624 -7.606,-4.419 -16.034,-7.766 -25.293,-10.043 20.896,-3.569 36.148,-11.302 45.775,-23.18 9.623,-11.885 12.839,-27.493 9.659,-46.851 -2.032,-12.35 -5.92,-23.452 -11.647,-33.304 -5.746,-9.854 -13.101,-18.185 -22.059,-25.001 -8.969,-6.806 -19.469,-11.996 -31.497,-15.554 -12.032,-3.565 -25.311,-5.296 -39.822,-5.202 l -88.457,0.589 z"
             style="fill:#2c73b2;fill-opacity:1;fill-rule:nonzero;stroke:none"
             id="path42" /></g><g
           id="g44"
           transform="translate(2348.3096,379.979)"><path
             d="m 0,0 47.407,-0.316 c 12.065,-0.078 23.145,1.398 33.227,4.417 10.08,3.031 18.908,7.401 26.467,13.117 7.569,5.724 13.744,12.618 18.551,20.695 4.801,8.076 8.035,17.191 9.703,27.348 3.41,20.721 -0.421,36.143 -11.491,46.24 -11.069,10.103 -28.753,15.238 -53.021,15.398 L 20.929,127.231 0,0 z m -2.576,-15.643 -21.67,-131.763 -19.661,0.129 47.916,291.312 69.574,-0.461 c 31.468,-0.205 53.912,-6.851 67.329,-19.917 C 154.321,110.58 158.962,91.49 154.827,66.371 153.006,55.252 149.532,45.101 144.426,35.936 139.306,26.767 132.812,18.734 124.929,11.845 117.047,4.957 107.983,-0.683 97.742,-5.079 87.494,-9.481 76.294,-12.323 64.12,-13.611 c 2.747,-2.076 5.055,-4.847 6.934,-8.293 l 73.125,-126.623 -17.153,0.118 c -2.053,0.011 -3.751,0.444 -5.095,1.265 -1.341,0.838 -2.562,2.221 -3.663,4.146 L 50.416,-24.236 c -1.69,3.026 -3.688,5.168 -5.985,6.424 -2.305,1.253 -6.084,1.896 -11.354,1.931 l -35.653,0.238 z"
             style="fill:#2c73b2;fill-opacity:1;fill-rule:nonzero;stroke:none"
             id="path46" /></g><g
           id="g48"
           transform="translate(423.5298,574.71)"><path
             d="m 0,0 196.339,-98.151 0,-196.357 L 0,-392.294 l -196.339,97.786 0,196.357 L 0,0 z"
             style="fill:#59caec;fill-opacity:1;fill-rule:nonzero;stroke:none"
             id="path50" /></g><g
           id="g52"
           transform="translate(248.1118,469.5386)"><path
             d="M 0,0 175.604,-87.623 350.836,0 175.604,87.972 0,0 z"
             style="fill:#2c73b2;fill-opacity:1;fill-rule:nonzero;stroke:none"
             id="path54" /></g><g
           id="g56"
           transform="translate(423.5273,227.6836)"><path
             d="M 0,0 147.151,73.562 38.55,127.854 0,108.592 -38.557,127.854 -147.146,73.562 0,0 z"
             style="fill:#2c73b2;fill-opacity:1;fill-rule:nonzero;stroke:none"
             id="path58" /></g></g></g></g></svg>