<?xml version="1.0" encoding="UTF-8" standalone="no"?>
<svg
   xmlns:dc="http://purl.org/dc/elements/1.1/"
   xmlns:cc="http://creativecommons.org/ns#"
   xmlns:rdf="http://www.w3.org/1999/02/22-rdf-syntax-ns#"
   xmlns:svg="http://www.w3.org/2000/svg"
   xmlns="http://www.w3.org/2000/svg"
   xmlns:sodipodi="http://sodipodi.sourceforge.net/DTD/sodipodi-0.dtd"
   xmlns:inkscape="http://www.inkscape.org/namespaces/inkscape"
   width="200"
   height="200"
   viewBox="0 0 200 200"
   id="svg2"
   version="1.1"
   inkscape:version="0.91 r13725"
   sodipodi:docname="configr.svg">
  <metadata
     id="metadata16">
    <rdf:RDF>
      <cc:Work
         rdf:about="">
        <dc:format>image/svg+xml</dc:format>
        <dc:type
           rdf:resource="http://purl.org/dc/dcmitype/StillImage" />
        <dc:title>logo</dc:title>
      </cc:Work>
    </rdf:RDF>
  </metadata>
  <defs
     id="defs14" />
  <sodipodi:namedview
     pagecolor="#ffffff"
     bordercolor="#666666"
     borderopacity="1"
     objecttolerance="10"
     gridtolerance="10"
     guidetolerance="10"
     inkscape:pageopacity="0"
     inkscape:pageshadow="2"
     inkscape:window-width="1366"
     inkscape:window-height="744"
     id="namedview12"
     showgrid="false"
     inkscape:zoom="2.3137255"
     inkscape:cx="35.838362"
     inkscape:cy="99.287908"
     inkscape:window-x="0"
     inkscape:window-y="24"
     inkscape:window-maximized="1"
     inkscape:current-layer="svg2" />
  <title
     id="title4">logo</title>
  <g
     transform="matrix(3.8698305,0,0,3.8698305,3.2542375,3.2542375)"
     id="g6"
     style="fill:none;fill-rule:evenodd">
    <rect
       width="50"
       height="50"
       rx="4"
       id="rect8"
       x="0"
       y="0"
       style="fill:#7e509c" />
    <path
       d="m 32.99,32.424 c 0.107,0 0.197,0.037 0.27,0.11 l 0.638,0.68 c -0.467,0.496 -0.976,0.942 -1.528,1.337 -0.552,0.396 -1.154,0.734 -1.807,1.013 -0.653,0.28 -1.37,0.496 -2.15,0.648 -0.78,0.154 -1.637,0.23 -2.57,0.23 -1.56,0 -2.992,-0.27 -4.292,-0.814 -1.3,-0.543 -2.414,-1.312 -3.342,-2.308 -0.93,-0.997 -1.654,-2.2 -2.174,-3.614 -0.52,-1.412 -0.78,-2.983 -0.78,-4.712 0,-1.697 0.268,-3.247 0.804,-4.65 0.536,-1.4 1.29,-2.605 2.26,-3.612 0.972,-1.007 2.135,-1.787 3.488,-2.34 1.353,-0.554 2.847,-0.83 4.482,-0.83 0.817,0 1.565,0.06 2.245,0.18 0.68,0.122 1.313,0.296 1.902,0.523 0.59,0.227 1.144,0.51 1.664,0.846 0.52,0.336 1.03,0.726 1.528,1.17 l -0.494,0.71 c -0.085,0.127 -0.218,0.19 -0.398,0.19 -0.095,0 -0.218,-0.055 -0.366,-0.166 -0.15,-0.11 -0.337,-0.247 -0.565,-0.41 -0.23,-0.164 -0.505,-0.343 -0.828,-0.538 -0.324,-0.195 -0.71,-0.375 -1.155,-0.538 -0.445,-0.163 -0.96,-0.3 -1.544,-0.41 -0.584,-0.112 -1.247,-0.167 -1.99,-0.167 -1.37,0 -2.627,0.235 -3.774,0.705 -1.146,0.47 -2.133,1.138 -2.96,2.008 -0.83,0.87 -1.474,1.924 -1.935,3.162 -0.463,1.24 -0.694,2.628 -0.694,4.167 0,1.58 0.228,2.994 0.685,4.238 0.457,1.244 1.09,2.295 1.895,3.155 0.807,0.86 1.76,1.518 2.858,1.976 1.1,0.46 2.29,0.69 3.575,0.69 0.806,0 1.525,-0.054 2.157,-0.16 0.63,-0.104 1.213,-0.263 1.743,-0.473 0.53,-0.21 1.025,-0.47 1.48,-0.775 0.457,-0.306 0.91,-0.664 1.354,-1.075 0.053,-0.043 0.104,-0.077 0.152,-0.103 0.047,-0.027 0.103,-0.04 0.167,-0.04 0,0 -0.063,0 0,0 z"
       id="path10"
       inkscape:connector-curvature="0"
       style="fill:#ffffff;stroke:#ffffff;stroke-width:1.69500005" />
  </g>
</svg>
