<svg width="51" height="51" viewBox="0 0 51 51" xmlns="http://www.w3.org/2000/svg"><title>logo</title><g transform="translate(.5 .313)" fill="none" fill-rule="evenodd"><rect fill="#7E509C" width="50" height="50" rx="4"/><path d="M32.99 32.424c.107 0 .197.037.27.11l.638.68c-.467.496-.976.942-1.528 1.337-.552.396-1.154.734-1.807 1.013-.653.28-1.37.496-2.15.648-.78.154-1.637.23-2.57.23-1.56 0-2.992-.27-4.292-.814-1.3-.543-2.414-1.312-3.342-2.308-.93-.997-1.654-2.2-2.174-3.614-.52-1.412-.78-2.983-.78-4.712 0-1.697.268-3.247.804-4.65.536-1.4 1.29-2.605 2.26-3.612.972-1.007 2.135-1.787 3.488-2.34 1.353-.554 2.847-.83 4.482-.83.817 0 1.565.06 2.245.18.68.122 1.313.296 1.902.523.59.227 1.144.51 1.664.846.52.336 1.03.726 1.528 1.17l-.494.71c-.085.127-.218.19-.398.19-.095 0-.218-.055-.366-.166-.15-.11-.337-.247-.565-.41-.23-.164-.505-.343-.828-.538-.324-.195-.71-.375-1.155-.538-.445-.163-.96-.3-1.544-.41-.584-.112-1.247-.167-1.99-.167-1.37 0-2.627.235-3.774.705-1.146.47-2.133 1.138-2.96 2.008-.83.87-1.474 1.924-1.935 3.162-.463 1.24-.694 2.628-.694 4.167 0 1.58.228 2.994.685 4.238.457 1.244 1.09 2.295 1.895 3.155.807.86 1.76 1.518 2.858 1.976 1.1.46 2.29.69 3.575.69.806 0 1.525-.054 2.157-.16.63-.104 1.213-.263 1.743-.473.53-.21 1.025-.47 1.48-.775.457-.306.91-.664 1.354-1.075.053-.043.104-.077.152-.103.047-.027.103-.04.167-.04 0 0-.063 0 0 0z" stroke="#FFF" stroke-width="1.695" fill="#FFF"/></g></svg>