<?xml version="1.0" encoding="UTF-8" standalone="no"?>
<svg
   xmlns:dc="http://purl.org/dc/elements/1.1/"
   xmlns:cc="http://creativecommons.org/ns#"
   xmlns:rdf="http://www.w3.org/1999/02/22-rdf-syntax-ns#"
   xmlns:svg="http://www.w3.org/2000/svg"
   xmlns="http://www.w3.org/2000/svg"
   xmlns:sodipodi="http://sodipodi.sourceforge.net/DTD/sodipodi-0.dtd"
   xmlns:inkscape="http://www.inkscape.org/namespaces/inkscape"
   width="200"
   height="200"
   viewBox="0 0 200 200"
   version="1.1"
   id="svg2"
   inkscape:version="0.91 r13725"
   sodipodi:docname="globocom.svg">
  <metadata
     id="metadata17">
    <rdf:RDF>
      <cc:Work
         rdf:about="">
        <dc:format>image/svg+xml</dc:format>
        <dc:type
           rdf:resource="http://purl.org/dc/dcmitype/StillImage" />
        <dc:title>Group</dc:title>
      </cc:Work>
    </rdf:RDF>
  </metadata>
  <sodipodi:namedview
     pagecolor="#ffffff"
     bordercolor="#666666"
     borderopacity="1"
     objecttolerance="10"
     gridtolerance="10"
     guidetolerance="10"
     inkscape:pageopacity="0"
     inkscape:pageshadow="2"
     inkscape:window-width="1366"
     inkscape:window-height="744"
     id="namedview15"
     showgrid="false"
     inkscape:zoom="0.93650794"
     inkscape:cx="-11.211864"
     inkscape:cy="126"
     inkscape:window-x="0"
     inkscape:window-y="24"
     inkscape:window-maximized="1"
     inkscape:current-layer="svg2" />
  <!-- Generator: Sketch 40.3 (33839) - http://www.bohemiancoding.com/sketch -->
  <title
     id="title4">Group</title>
  <desc
     id="desc6">Created with Sketch.</desc>
  <defs
     id="defs8" />
  <g
     id="Logos"
     style="fill:none;fill-rule:evenodd;stroke:none;stroke-width:1"
     transform="matrix(0.77118644,0,0,0.77118644,2.8305086,2.8305086)">
    <g
       id="Artboard">
      <g
         id="Group">
        <rect
           id="Rectangle-2"
           x="0"
           y="0"
           width="252"
           height="252"
           style="fill:#ffffff" />
        <path
           d="m 75.628851,129.5394 0,-30.65454 c 0,-3.670599 -2.280965,-6.122679 -5.475394,-6.122679 -3.047434,0 -4.796041,1.683907 -5.485893,4.593145 C 62.613902,93.989214 58.355042,92.303605 54.62258,92.303605 43.586946,92.303605 36,102.63832 36,113.73809 c 0,10.94738 5.990157,19.93276 17.483233,19.93276 5.022492,0 8.619027,-1.83232 10.90368,-5.20468 l 0.151251,0 0,2.60248 c 0,5.59146 -3.823553,8.72942 -9.153087,8.72942 -6.316211,0 -10.197086,-3.4416 -13.697706,-3.4416 -2.130281,0 -4.413516,2.75628 -4.413516,4.81704 0,6.04862 12.784526,8.27084 17.274093,8.27084 12.483443,0 21.080903,-6.66156 21.080903,-19.90495 l 0,0 z m -19.559598,-5.96887 c -5.708087,0 -8.521409,-4.16806 -8.521409,-10.0623 0,-5.12862 2.813606,-11.09863 8.521409,-11.09863 6.012575,0 8.469195,6.12268 8.469195,11.48485 -2.84e-4,5.35564 -2.608155,9.67608 -8.469195,9.67608 l 0,0 z m 30.737289,11.44824 c 3.226779,0 5.535837,-2.47507 5.535837,-6.18625 l 0,-47.642587 c 0,-3.712598 -2.309058,-6.189649 -5.535837,-6.189649 -3.231887,0 -5.537823,2.477051 -5.537823,6.189649 l 0,47.642587 c 0,3.71118 2.305652,6.18625 5.537823,6.18625 l 0,0 z m 26.981958,-0.15409 c 11.95562,0 19.89955,-9.71893 19.89955,-21.20207 0,-11.17753 -8.17662,-21.359289 -19.89955,-21.359289 -11.72691,0 -19.900979,10.181759 -19.900979,21.359289 0,11.48314 7.947909,21.20207 19.900979,21.20207 l 0,0 z m 0,-32.45508 c 6.09628,0 8.66187,5.97001 8.66187,11.25301 0,5.28129 -2.64447,11.09976 -8.66187,11.09976 -6.01769,0 -8.7927,-5.81847 -8.7927,-11.09976 -2.8e-4,-5.283 2.69896,-11.25301 8.7927,-11.25301 l 0,0 z m 32.33475,27.4079 c 2.05423,3.36441 6.31962,5.04718 10.04669,5.04718 11.03734,0 18.62712,-10.335 18.62712,-20.7435 0,-10.71923 -6.45214,-21.817859 -18.24544,-21.817859 -3.80994,0 -7.3395,1.304219 -10.23143,3.826107 l 0,-15.000223 C 146.32019,77.45435 143.84229,75 140.64133,75 c -3.19442,0 -5.47851,2.454066 -5.47851,6.129205 l 0,47.152795 c 0,3.6777 2.28409,6.12268 5.47851,6.12268 3.0463,0 4.79803,-1.68277 5.48192,-4.58718 l 0,0 z m 8.79469,-27.60427 c 5.70865,0 8.5285,6.04549 8.5285,11.2513 0,5.12692 -2.81985,11.09835 -8.5285,11.09835 -6.01229,0 -8.59775,-6.12268 -8.59775,-11.48314 0,-5.35678 2.73983,-10.86651 8.59775,-10.86651 l 0,0 z m 41.12887,-9.909625 c -11.75216,0 -19.68276,10.181765 -19.68276,21.359285 0,11.48314 7.69705,21.20207 19.68276,21.20207 11.9911,0 19.95319,-9.71893 19.95319,-21.20207 0,-11.17752 -8.19819,-21.359285 -19.95319,-21.359285 l 0,0 z m 0,32.259275 c -6.03187,0 -8.68231,-5.81393 -8.68231,-11.09835 0,-5.27987 2.57524,-11.2513 8.68231,-11.2513 6.10849,0 8.8154,5.97143 8.8154,11.2513 0,5.28442 -2.78296,11.09835 -8.8154,11.09835 l 0,0 z M 70.892004,165.26609 c -3.085744,0 -5.462907,2.5253 -5.462907,5.63005 0,3.09993 2.377163,5.62778 5.462907,5.62778 3.082339,0 5.593443,-2.52785 5.593443,-5.62778 0,-3.10475 -2.511104,-5.63005 -5.593443,-5.63005 l 0,0 z m 23.292059,-16.88532 c 3.061623,0 5.191053,1.87432 7.586947,1.87432 2.26309,0 3.6601,-2.60958 3.6601,-4.61897 0,-4.68537 -7.920096,-5.82756 -11.713002,-5.82756 -10.11763,0 -17.172501,8.64003 -17.172501,18.41344 0,10.03988 6.855095,18.27298 17.172501,18.27298 3.458338,0 11.713002,-1.66717 11.713002,-6.62184 0,-2.27841 -1.86297,-4.21941 -4.12861,-4.21941 -1.13112,0 -4.326114,2.0074 -6.725696,2.0074 -5.187364,0 -8.448195,-4.6882 -8.448195,-9.43913 0,-4.95268 2.597655,-9.84123 8.055454,-9.84123 l 0,0 z m 29.070527,-8.57221 c -9.81684,0 -16.66172,8.49389 -16.66172,18.10669 0,9.87301 6.65107,18.50226 16.66172,18.50226 10.01348,0 16.66681,-8.62925 16.66681,-18.50226 0,-9.6128 -6.84715,-18.10669 -16.66681,-18.10669 l 0,0 z m 0,28.31399 c -5.03385,0 -7.36078,-5.66297 -7.36078,-10.20759 0,-4.54774 2.26053,-9.67977 7.36078,-9.67977 5.10279,0 7.36361,5.13203 7.36361,9.67977 0,4.54462 -2.32353,10.20759 -7.36361,10.20759 l 0,0 z m 56.44039,-28.31399 c -3.26481,0 -7.45414,1.80934 -10.11593,4.88543 -2.53267,-3.21344 -5.92688,-4.88543 -9.91643,-4.88543 -3.52872,0 -6.59034,1.47704 -8.91983,4.01851 -0.33315,-2.27699 -1.93051,-3.6147 -4.39252,-3.6147 -2.79516,0 -4.844,2.14419 -4.844,5.35763 l 0,25.56905 c 0,3.21316 1.8695,5.35281 4.66891,5.35281 2.79119,0 4.84883,-2.13965 4.84883,-5.35281 l 0,-16.93527 c 0,-3.88201 1.84821,-6.42688 5.77534,-6.42688 3.46203,0 5.30201,2.54516 5.30201,6.42688 l 0,16.93527 c 0,3.21316 1.87772,5.35281 4.67288,5.35281 2.79601,0 4.84627,-2.13965 4.84627,-5.35281 l 0,-16.93527 c 0,-3.88201 2.48471,-6.42688 6.01172,-6.42688 3.4609,0 5.09855,2.54516 5.09855,6.42688 l 0,16.93527 c 0,3.21316 2.12091,5.35281 4.91267,5.35281 2.79857,0 4.55597,-2.13965 4.55597,-5.35281 l 0,-18.60669 c -5.7e-4,-8.43486 -4.71659,-12.7238 -12.50444,-12.7238 l 0,0 z"
           id="Globo.com"
           inkscape:connector-curvature="0"
           style="fill:#0669de" />
      </g>
    </g>
  </g>
</svg>
