<?xml version="1.0" encoding="UTF-8" standalone="no"?>
<!-- Created with Inkscape (http://www.inkscape.org/) -->

<svg
   xmlns:dc="http://purl.org/dc/elements/1.1/"
   xmlns:cc="http://creativecommons.org/ns#"
   xmlns:rdf="http://www.w3.org/1999/02/22-rdf-syntax-ns#"
   xmlns:svg="http://www.w3.org/2000/svg"
   xmlns="http://www.w3.org/2000/svg"
   xmlns:sodipodi="http://sodipodi.sourceforge.net/DTD/sodipodi-0.dtd"
   xmlns:inkscape="http://www.inkscape.org/namespaces/inkscape"
   version="1.1"
   width="200"
   height="200"
   id="svg2"
   inkscape:version="0.91 r13725"
   sodipodi:docname="serpro.svg">
  <sodipodi:namedview
     pagecolor="#ffffff"
     bordercolor="#666666"
     borderopacity="1"
     objecttolerance="10"
     gridtolerance="10"
     guidetolerance="10"
     inkscape:pageopacity="0"
     inkscape:pageshadow="2"
     inkscape:window-width="1366"
     inkscape:window-height="744"
     id="namedview8"
     showgrid="false"
     inkscape:zoom="0.624"
     inkscape:cx="201.22977"
     inkscape:cy="65.539744"
     inkscape:window-x="0"
     inkscape:window-y="24"
     inkscape:window-maximized="1"
     inkscape:current-layer="svg2" />
  <defs
     id="defs4" />
  <metadata
     id="metadata7">
    <rdf:RDF>
      <cc:Work
         rdf:about="">
        <dc:format>image/svg+xml</dc:format>
        <dc:type
           rdf:resource="http://purl.org/dc/dcmitype/StillImage" />
        <dc:title></dc:title>
      </cc:Work>
    </rdf:RDF>
  </metadata>
  <path
     inkscape:connector-curvature="0"
     style="fill:#0059aa;fill-opacity:1"
     id="path3068"
     d="m 8.1672049,125.23102 c 0.0173,-0.0437 0.694302,-1.90654 1.504402,-4.13972 0.8101031,-2.23318 1.5519871,-4.27469 1.6486351,-4.53668 0.09665,-0.26199 1.178919,-3.24259 2.405042,-6.62355 1.226118,-3.38096 2.308087,-6.36156 2.40438,-6.62355 0.09628,-0.262 0.804343,-2.21563 1.573449,-4.341418 l 1.398387,-3.865058 6.118929,6.110716 c 3.365418,3.36089 6.10178,6.08009 6.080816,6.04267 -0.02095,-0.0374 -0.183326,-0.262 -0.360827,-0.49904 -1.725681,-2.30463 -2.663747,-4.75593 -2.716994,-7.099905 -0.09349,-4.115445 1.96328,-7.993724 5.493172,-10.357979 2.000908,-1.340181 4.431764,-2.094131 6.752669,-2.09441 1.21804,-1.29e-4 3.120346,0.351791 4.650107,0.860291 2.471946,0.821689 4.290481,1.995778 5.798505,3.743638 l 0.19571,0.226834 -0.150343,-0.221309 c -0.386539,-0.568998 -1.170918,-1.482952 -1.89543,-2.208538 -0.779717,-0.780889 -0.926798,-0.918423 -1.385217,-1.295351 -3.875763,-3.18675 -9.090631,-4.662886 -14.313238,-4.051539 -5.023614,0.588055 -9.454158,3.146298 -12.564731,7.255021 -0.217236,0.286946 -0.472743,0.639106 -0.567778,0.782576 -0.09505,0.143471 -0.179836,0.260861 -0.188429,0.260861 -0.0085,0 0.02357,-0.107178 0.07151,-0.238175 0.248661,-0.679661 5.001812,-13.778238 5.642523,-15.549479 l 0.746683,-2.064187 19.444593,-0.01138 c 10.694531,-0.0063 19.444596,0.0017 19.444596,0.01794 0,0.03485 -0.08994,0.283738 -2.571673,7.116062 -1.060413,2.919353 -2.142357,5.899954 -2.40432,6.623552 -0.261959,0.723602 -1.343959,3.7042 -2.404441,6.623557 -1.060481,2.919352 -2.141936,5.89996 -2.403234,6.62355 -0.261298,0.72361 -0.554184,1.53 -0.650854,1.79199 -0.09667,0.262 -0.762779,2.09538 -1.480247,4.0742 l -1.30448,3.59785 -6.123373,-6.1157 c -3.367874,-3.36364 -6.094449,-6.071716 -6.059067,-6.017953 0.03537,0.05376 0.250563,0.370193 0.478165,0.703183 1.352286,1.97837 2.055285,3.66919 2.383184,5.73189 0.07696,0.48411 0.07697,2.28122 2.6e-5,2.81274 -0.165851,1.14567 -0.379563,2.01705 -0.714017,2.91133 -1.373778,3.67328 -4.48011,6.49699 -8.252903,7.50202 -1.322728,0.35236 -2.739207,0.47585 -3.901557,0.34012 -2.257385,-0.2636 -4.216858,-0.82814 -5.984167,-1.72408 -1.419167,-0.71946 -2.503222,-1.56507 -3.61156,-2.81721 -0.239334,-0.27039 -0.215442,-0.23237 0.220056,0.3501 0.720082,0.96314 1.936834,2.24328 2.865534,3.01486 2.013394,1.67275 4.217412,2.84049 6.703421,3.55161 0.902078,0.25804 1.528109,0.39032 2.710187,0.57263 0.521407,0.0804 1.781873,0.15784 2.572098,0.15799 4.588855,8.6e-4 8.749328,-1.49993 12.198391,-4.40039 1.142725,-0.96097 2.542884,-2.51063 3.320198,-3.67471 0.124962,-0.18714 0.24218,-0.357 0.260495,-0.37747 0.0285,-0.0318 -0.472953,1.37295 -1.090168,3.05411 -0.09619,0.26199 -0.834514,2.29804 -1.64072,4.52454 l -1.465847,4.04818 -19.455872,8.5e-4 c -18.5113401,8.6e-4 -19.4543501,-0.003 -19.4243761,-0.0786 z m 43.9386561,0.0284 c -1.137226,-0.18424 -1.996143,-1.18542 -1.996143,-2.32677 0,-0.55763 0.222709,-1.15397 0.589034,-1.5772 0.729222,-0.8425 2.073948,-1.03941 3.016461,-0.44169 1.411388,0.89508 1.487206,2.91459 0.146952,3.91436 -0.292255,0.21801 -0.578518,0.34033 -0.977724,0.41776 -0.367398,0.0713 -0.416967,0.0721 -0.77858,0.0135 z m 1.085116,-0.32185 c 0.531718,-0.19671 0.911457,-0.5282 1.173291,-1.02422 0.18579,-0.35196 0.252799,-0.69172 0.228337,-1.15779 -0.01747,-0.33278 -0.04431,-0.43678 -0.187567,-0.72664 -0.302046,-0.61114 -0.758817,-0.99839 -1.381208,-1.17097 -0.995675,-0.27609 -2.009686,0.19544 -2.483469,1.15486 -0.151587,0.30697 -0.177737,0.40634 -0.195392,0.74275 -0.03296,0.6281 0.136307,1.14946 0.517952,1.59533 0.27281,0.31871 0.790938,0.60601 1.24294,0.6892 0.291702,0.0537 0.790178,0.007 1.085116,-0.10252 z m -1.720264,-2.03156 0,-1.4971 0.761629,0 c 0.700398,0 0.777683,0.008 0.961391,0.10207 0.284885,0.14557 0.379125,0.296 0.398222,0.63563 0.01889,0.33591 -0.07045,0.54717 -0.294693,0.69691 l -0.146921,0.0981 0.114917,0.0753 c 0.152849,0.10015 0.18673,0.20363 0.247498,0.7559 0.02829,0.25687 0.07106,0.50377 0.09508,0.54867 0.03824,0.0714 0.02365,0.0816 -0.116699,0.0816 -0.09727,0 -0.160958,-0.0223 -0.161855,-0.0567 -0.006,-0.2295 -0.131688,-1.03258 -0.174024,-1.11168 -0.07496,-0.14007 -0.31883,-0.19208 -0.901966,-0.19237 l -0.510371,-3.7e-4 0,0.68051 0,0.6805 -0.136096,0 -0.136114,0 0,-1.4971 z m 1.563088,-0.15499 c 0.209209,-0.0874 0.301737,-0.24467 0.30384,-0.51638 0.0021,-0.27264 -0.05677,-0.39385 -0.247952,-0.51042 -0.123885,-0.0755 -0.230492,-0.0882 -0.745649,-0.0883 l -0.601117,0 0,0.58977 0,0.58976 0.568542,0 c 0.387839,0 0.61742,-0.0204 0.722336,-0.0643 z m 12.614047,-0.66406 c -2.527672,-0.23528 -4.710021,-0.87061 -7.099906,-2.06695 -0.511509,-0.25607 -0.967979,-0.49369 -1.014381,-0.52809 -0.08028,-0.0595 -0.06458,-0.11065 0.324449,-1.05756 0.224842,-0.54728 0.617471,-1.50542 0.872507,-2.12922 0.255035,-0.62379 0.65188,-1.59351 0.881877,-2.15492 0.229998,-0.56142 0.454149,-1.11593 0.498108,-1.23227 l 0.07993,-0.21151 0.641836,0.42204 c 1.62926,1.07131 2.70422,1.57796 4.067027,1.91683 0.418873,0.10416 0.572139,0.11879 1.27027,0.12126 0.732612,0.003 0.814937,-0.005 1.066118,-0.10489 0.579367,-0.22922 0.847769,-0.52088 0.909821,-0.98863 0.06045,-0.45568 -0.230779,-0.84231 -0.86445,-1.14761 -0.472203,-0.22752 -0.91129,-0.35696 -2.154925,-0.63526 -0.561417,-0.12564 -1.194282,-0.28131 -1.406375,-0.34595 -1.881218,-0.57331 -3.283476,-1.59116 -4.098211,-2.97472 -0.584043,-0.99182 -0.845989,-2.04254 -0.8465,-3.3955 -8.58e-4,-1.80476 0.433142,-3.32888 1.329532,-4.6709 0.322779,-0.48324 0.532117,-0.73362 1.026353,-1.227579 0.712214,-0.711811 1.253203,-1.11024 2.225891,-1.639326 0.519098,-0.282356 1.496881,-0.648493 2.154925,-0.806923 0.609943,-0.146848 0.753675,-0.175024 1.247589,-0.244549 3.201581,-0.450684 6.495054,0.153103 9.678241,1.774289 0.369219,0.188043 0.486364,0.268604 0.470945,0.323882 -0.01129,0.04048 -0.464772,1.135166 -1.007753,2.432656 -0.542976,1.29749 -1.084188,2.59385 -1.20269,2.8808 -0.11851,0.28694 -0.253649,0.60864 -0.300316,0.71489 l -0.08485,0.19317 -0.515681,-0.34475 c -1.176304,-0.78639 -2.403225,-1.29552 -3.549689,-1.47298 -0.466081,-0.0721 -1.575484,-0.0341 -1.884531,0.0646 -0.629147,0.20099 -0.916749,0.58115 -0.884401,1.16904 0.01022,0.18595 0.373721,0.55425 0.754387,0.76438 0.49315,0.27223 1.503547,0.61199 2.427886,0.81642 0.787967,0.17427 1.929074,0.46259 2.226621,0.5626 1.005547,0.33797 1.825283,0.84964 2.582435,1.61191 0.747142,0.75221 1.179369,1.44179 1.489039,2.37567 0.475388,1.43365 0.430201,3.53125 -0.111127,5.15892 -0.918346,2.76128 -3.479512,4.97953 -6.627111,5.73979 -0.524836,0.12676 -1.073466,0.2244 -1.669415,0.2971 -0.523734,0.0639 -2.37244,0.0892 -2.903475,0.0398 z m 112.101382,-0.003 c -2.43318,-0.20579 -4.77682,-1.07295 -6.64624,-2.45912 -2.19431,-1.6271 -3.74806,-3.82989 -4.46759,-6.33382 -0.3324,-1.15676 -0.46867,-2.07863 -0.50671,-3.42794 -0.0899,-3.19047 0.81106,-6.03036 2.64117,-8.32481 0.44833,-0.56208 1.46001,-1.548968 2.06955,-2.018829 2.21583,-1.70806 4.78475,-2.58841 7.79448,-2.671103 3.33593,-0.09166 6.40046,0.94474 8.89732,3.009004 0.3833,0.316888 1.25719,1.211698 1.59731,1.635558 1.08704,1.35463 1.93273,3.07782 2.34012,4.76819 0.62952,2.61228 0.43499,5.65773 -0.51172,8.00971 -0.67868,1.68608 -1.47061,2.87453 -2.79216,4.19016 -2.12483,2.11532 -4.86273,3.34467 -8.07913,3.62763 -0.60243,0.053 -1.68025,0.0509 -2.3364,-0.005 z m 1.91936,-8.0933 c 0.82544,-0.13387 1.4466,-0.43155 2.0105,-0.9635 0.95325,-0.89926 1.42381,-2.25868 1.33862,-3.86727 -0.11545,-2.18071 -1.17158,-3.6564 -2.97679,-4.15944 -0.39803,-0.11092 -1.49258,-0.13267 -1.95626,-0.0389 -1.50255,0.30396 -2.65345,1.47062 -3.03483,3.0764 -0.2069,0.87112 -0.20039,2.08755 0.0157,2.9371 0.55,2.16233 2.39824,3.37316 4.60304,3.01558 z m -100.478747,-4.55855 0,-12.067572 8.029922,0 8.029928,0 0,3.266412 0,3.26641 -3.810811,0 -3.810815,0 0,1.17953 0,1.17955 3.470562,0 3.470562,0 0,3.08494 0,3.08494 -3.470562,0 -3.470562,0 0,1.27027 0,1.27027 3.92423,0 3.924229,0 0,3.26641 0,3.26641 -8.143341,0 -8.143342,0 0,-12.06757 z m 18.418921,-8.6e-4 0,-12.068223 5.682186,0.0064 c 6.27696,0.007 6.78358,0.02258 8.10852,0.248485 1.40335,0.239286 2.69905,0.728414 3.72546,1.406358 0.59859,0.395376 1.46023,1.24137 1.82102,1.78797 0.66651,1.00973 1.0655,2.15386 1.21714,3.49019 0.0817,0.71966 0.0306,2.30651 -0.0929,2.88384 -0.2705,1.26532 -0.73137,2.1869 -1.49149,2.98251 -0.73775,0.7722 -1.51286,1.19582 -2.60606,1.4243 -0.20467,0.0427 -0.37813,0.0819 -0.38549,0.087 -0.007,0.005 0.47929,0.76192 1.08144,1.68194 0.60214,0.92002 1.27165,1.94317 1.48779,2.27366 0.21614,0.3305 0.8217,1.25401 1.34569,2.05224 2.1083,3.21174 2.45043,3.7354 2.465,3.77292 0.008,0.0218 -2.12544,0.034 -4.82243,0.0276 l -4.83762,-0.0115 -2.09601,-3.95985 -2.09601,-3.95984 -0.0116,3.97119 -0.0116,3.97118 -4.24155,0 -4.241546,0 0,-12.06822 z M 108.2433,108.2297 c 0.95371,-0.20204 1.5659,-0.81344 1.72855,-1.72632 0.0802,-0.44994 0.0805,-0.6325 0.002,-1.07352 -0.15394,-0.8633 -0.61649,-1.41172 -1.43421,-1.70045 -0.31861,-0.11249 -0.39682,-0.12032 -1.39235,-0.1393 l -1.05478,-0.0201 0,2.36386 0,2.36385 0.91868,-8.5e-4 c 0.6309,-4.3e-4 1.01691,-0.0216 1.23227,-0.0672 z m 13.13767,1.20133 0,-12.068419 5.47804,0.0071 c 3.01293,0.0039 5.79448,0.02532 6.18123,0.04759 5.31566,0.30603 8.08176,2.191694 8.90955,6.073679 0.20033,0.93944 0.23189,1.30862 0.23061,2.69717 -0.001,1.41171 -0.0433,1.8387 -0.27496,2.79962 -0.14702,0.60973 -0.25384,0.91371 -0.51477,1.46486 -0.61727,1.30387 -1.45041,2.14968 -2.771,2.81316 -0.54828,0.27547 -0.88429,0.40154 -1.57665,0.59158 -1.38724,0.38077 -2.29064,0.47322 -4.94414,0.50596 l -2.09821,0.0259 0,3.55511 0,3.55512 -4.30985,0 -4.30985,0 0,-12.06842 z m 11.11487,-1.44929 c 0.85412,-0.24805 1.3354,-0.76223 1.45927,-1.55901 0.13513,-0.86919 -0.26006,-1.66428 -1.01064,-2.03337 -0.55044,-0.27067 -0.80179,-0.31077 -1.94797,-0.31077 l -0.95047,0 0,2.02454 0,2.02453 1.05478,-0.0236 c 0.90326,-0.0202 1.10366,-0.0377 1.39503,-0.12237 z m 11.70464,1.44947 0,-12.068226 5.68219,0.0064 c 5.47528,0.0061 6.35546,0.02211 7.29272,0.132383 2.33459,0.274634 4.13009,1.018531 5.44787,2.257111 1.11358,1.046642 1.80352,2.434952 2.09039,4.206312 0.0814,0.50291 0.0809,2.48115 -0.001,2.90347 -0.29717,1.53635 -0.7345,2.45685 -1.59155,3.34989 -0.68942,0.71836 -1.52497,1.16627 -2.56339,1.37413 -0.20112,0.0403 -0.37303,0.0798 -0.38204,0.0878 -0.009,0.008 0.21619,0.36793 0.50042,0.79975 0.28422,0.43182 0.67946,1.0351 0.87832,1.34063 0.19886,0.30552 0.72902,1.11642 1.17816,1.80199 2.05995,3.14437 2.67246,4.07881 3.23479,4.935 l 0.60353,0.9189 -4.82017,0.0115 c -2.65108,0.006 -4.83482,-0.004 -4.85276,-0.0227 -0.0179,-0.0188 -0.85304,-1.58578 -1.85581,-3.48211 -1.00277,-1.89634 -1.94309,-3.67245 -2.08961,-3.94691 l -0.2664,-0.49904 -0.004,0.20415 c -0.002,0.11229 -0.005,1.90371 -0.007,3.98094 l -0.003,3.77679 -4.23606,0 -4.23606,0 0,-12.06823 z m 10.92799,-1.28096 c 0.74348,-0.26596 1.20496,-0.74657 1.39218,-1.44988 0.0837,-0.31447 0.0832,-1.16566 -8.6e-4,-1.48167 -0.20421,-0.76725 -0.69018,-1.26205 -1.50439,-1.53171 -0.16894,-0.0559 -0.47271,-0.0786 -1.27647,-0.0952 -0.94635,-0.0195 -1.05508,-0.0143 -1.0577,0.051 -0.002,0.04 -0.003,1.06297 -0.003,2.27313 0,1.21016 10e-4,2.24327 0.003,2.2958 0.003,0.0949 0.0104,0.0954 1.0577,0.0769 1.00053,-0.0177 1.072,-0.0248 1.38962,-0.1384 z" />
</svg>
