<?xml version="1.0" encoding="UTF-8" standalone="no"?>
<!-- Created with Inkscape (http://www.inkscape.org/) -->

<svg
   xmlns:dc="http://purl.org/dc/elements/1.1/"
   xmlns:cc="http://creativecommons.org/ns#"
   xmlns:rdf="http://www.w3.org/1999/02/22-rdf-syntax-ns#"
   xmlns:svg="http://www.w3.org/2000/svg"
   xmlns="http://www.w3.org/2000/svg"
   xmlns:sodipodi="http://sodipodi.sourceforge.net/DTD/sodipodi-0.dtd"
   xmlns:inkscape="http://www.inkscape.org/namespaces/inkscape"
   version="1.1"
   width="1000"
   height="1000"
   id="svg2"
   inkscape:version="0.91 r13725"
   sodipodi:docname="serpro.svg">
  <sodipodi:namedview
     pagecolor="#ffffff"
     bordercolor="#666666"
     borderopacity="1"
     objecttolerance="10"
     gridtolerance="10"
     guidetolerance="10"
     inkscape:pageopacity="0"
     inkscape:pageshadow="2"
     inkscape:window-width="1920"
     inkscape:window-height="1056"
     id="namedview8"
     showgrid="false"
     inkscape:zoom="0.156"
     inkscape:cx="-717.98482"
     inkscape:cy="532.4935"
     inkscape:window-x="0"
     inkscape:window-y="24"
     inkscape:window-maximized="1"
     inkscape:current-layer="svg2" />
  <defs
     id="defs4" />
  <metadata
     id="metadata7">
    <rdf:RDF>
      <cc:Work
         rdf:about="">
        <dc:format>image/svg+xml</dc:format>
        <dc:type
           rdf:resource="http://purl.org/dc/dcmitype/StillImage" />
        <dc:title></dc:title>
      </cc:Work>
    </rdf:RDF>
  </metadata>
  <path
     inkscape:connector-curvature="0"
     style="fill:#0059aa;fill-opacity:1"
     id="path3068"
     d="m 0.00349473,637.37424 c 0.0943,-0.23774 3.78021997,-10.38042 8.19092997,-22.53928 4.4107203,-12.15887 8.4500003,-23.27414 8.9762203,-24.7006 0.52621,-1.42646 6.41878,-17.65475 13.09457,-36.06286 6.67578,-18.40811 12.56671,-34.63641 13.091,-36.06286 0.52421,-1.42646 4.37935,-12.0633 8.56685,-23.63743 l 7.61372,-21.04385 33.31536,33.27065 c 18.323495,18.29885 33.221995,33.10392 33.107855,32.90014 -0.11407,-0.20378 -0.99814,-1.42646 -1.96457,-2.71706 -9.39571,-12.54792 -14.50314,-25.89432 -14.79307,-38.65643 -0.509,-22.40712 10.68936,-43.52295 29.90835,-56.39547 10.89422,-7.29679 24.12936,-11.40178 36.76586,-11.40329 6.63178,-7.2e-4 16.98914,1.91536 25.31814,4.68396 13.45886,4.4738 23.36014,10.86631 31.57079,20.38277 l 1.06557,1.23503 -0.81857,-1.20495 c -2.10457,-3.098 -6.37522,-8.07415 -10.31993,-12.0247 -4.24529,-4.25165 -5.04607,-5.00048 -7.542,-7.05271 -21.10214,-17.35072 -49.49522,-25.38774 -77.93043,-22.05917 -27.35178,3.20175 -51.474495,17.13045 -68.410425,39.50096 -1.18279,1.56232 -2.57393,3.4797 -3.09136,4.26085 -0.5175,0.78116 -0.97914,1.42029 -1.02593,1.42029 -0.0464,0 0.12843,-0.58355 0.38936,-1.29678 1.35386,-3.70049 27.23307,-75.01754 30.7215,-84.66129 l 4.06543,-11.23877 105.868785,-0.062 c 58.22787,-0.0341 105.86884,0.01 105.86884,0.0976 0,0.18981 -0.48971,1.54486 -14.00185,38.74439 -5.77356,15.89482 -11.66435,32.12312 -13.09064,36.06287 -1.42628,3.93974 -7.31738,20.16803 -13.09132,36.06286 -5.77394,15.89484 -11.66206,32.12312 -13.08474,36.06287 -1.42268,3.93975 -3.01733,8.33028 -3.54367,9.75673 -0.52635,1.42646 -4.15306,11.4086 -8.05941,22.18253 l -7.10243,19.58897 -33.33957,-33.2978 c -18.33686,-18.31378 -33.18207,-33.0583 -32.98943,-32.76558 0.19265,0.29272 1.36422,2.01558 2.60343,3.82859 7.36272,10.77151 11.19029,19.97738 12.97557,31.20805 0.419,2.63584 0.41907,12.42043 1.5e-4,15.31437 -0.903,6.23779 -2.06658,10.98211 -3.88758,15.85115 -7.47971,19.99969 -24.39257,35.37375 -44.93407,40.84579 -7.20178,1.9185 -14.91399,2.5908 -21.24256,1.85181 -12.29065,-1.43521 -22.959295,-4.50892 -32.581655,-9.38699 -7.72685,-3.91718 -13.62914,-8.52124 -19.66364,-15.33869 -1.30307,-1.47215 -1.173,-1.26518 1.19814,1.9062 3.92058,5.2439 10.54536,12.21381 15.60179,16.41482 10.96221,9.10753 22.962285,15.46545 36.497715,19.33725 4.9115,1.40492 8.32,2.12509 14.756,3.11773 2.83886,0.43782 9.70164,0.85938 14.00414,0.86022 24.98465,0.005 47.63693,-8.16658 66.41586,-23.95856 6.22171,-5.23213 13.84507,-13.6695 18.07728,-20.00749 0.68036,-1.0189 1.31858,-1.94372 1.41829,-2.05517 0.15507,-0.17328 -2.57507,7.47519 -5.93557,16.62853 -0.52372,1.42646 -4.54364,12.51197 -8.93314,24.63447 l -7.981,22.04088 -105.93021,0.004 C 4.9746447,637.80576 -0.15971527,637.78499 0.00349473,637.37385 Z M 239.23364,637.52867 c -6.19179,-1.00311 -10.86828,-6.45419 -10.86828,-12.66841 0,-3.03612 1.21257,-6.283 3.20707,-8.58731 3.97035,-4.58712 11.29192,-5.6592 16.42354,-2.40483 7.68452,4.87338 8.09732,15.86887 0.80012,21.31227 -1.59123,1.18698 -3.14984,1.85296 -5.32336,2.27455 -2.00035,0.38802 -2.27023,0.39272 -4.23909,0.0737 z m 5.90806,-1.75236 c 2.89502,-1.07104 4.96257,-2.87589 6.38816,-5.57652 1.01156,-1.91628 1.37639,-3.76618 1.24321,-6.30377 -0.0951,-1.81186 -0.24125,-2.37807 -1.02123,-3.95624 -1.64454,-3.32749 -4.1315,-5.43591 -7.52019,-6.37557 -5.42108,-1.5032 -10.94201,1.06413 -13.52158,6.28783 -0.82536,1.67134 -0.96772,2.21238 -1.06386,4.04398 -0.17943,3.41979 0.74214,6.25842 2.82007,8.68604 1.48536,1.73524 4.30636,3.29948 6.76736,3.75241 1.58821,0.29233 4.30224,0.0359 5.90806,-0.55816 z m -9.3662,-11.06112 0,-8.1512 4.14678,0 c 3.81341,0 4.23421,0.0447 5.23443,0.55577 1.5511,0.79257 2.06421,1.61157 2.16817,3.46075 0.1028,1.82895 -0.38358,2.97916 -1.6045,3.79445 l -0.79993,0.53415 0.62569,0.40999 c 0.83221,0.54526 1.01668,1.10866 1.34754,4.11556 0.15391,1.3986 0.38687,2.74288 0.51768,2.98731 0.20812,0.38894 0.12881,0.44442 -0.63538,0.44442 -0.5296,0 -0.87637,-0.1215 -0.88124,-0.30876 -0.0325,-1.24951 -0.71699,-5.62198 -0.94749,-6.05268 -0.40815,-0.76261 -1.73593,-1.0458 -4.91089,-1.04736 l -2.77879,-0.002 0,3.70509 0,3.70509 -0.741,0 -0.74107,0 0,-8.15119 z m 8.51044,-0.8439 c 1.13907,-0.4759 1.64284,-1.3321 1.6543,-2.81149 0.0116,-1.48443 -0.30908,-2.14436 -1.35001,-2.77906 -0.6745,-0.41127 -1.25494,-0.48001 -4.0598,-0.4808 l -3.27286,0 0,3.21107 0,3.21108 3.0955,0 c 2.11165,0 3.36165,-0.1112 3.93287,-0.34988 z m 68.67894,-3.61557 c -13.76226,-1.281 -25.64438,-4.74016 -38.65643,-11.25381 -2.78499,-1.39415 -5.27031,-2.68797 -5.52293,-2.8752 -0.4371,-0.32395 -0.35163,-0.6025 1.76649,-5.75807 1.22419,-2.97971 3.36192,-8.19648 4.75049,-11.59282 1.38857,-3.39633 3.54925,-8.67608 4.8015,-11.73278 1.25227,-3.0567 2.47268,-6.07585 2.71203,-6.70924 l 0.4352,-1.15161 3.49456,2.29783 c 8.87073,5.83293 14.7235,8.59142 22.14349,10.43648 2.28063,0.5671 3.11511,0.64676 6.91617,0.6602 3.98882,0.0141 4.43704,-0.03 5.80464,-0.57109 3.15443,-1.24805 4.6158,-2.83598 4.95363,-5.38271 0.32913,-2.48104 -1.2565,-4.58606 -4.70662,-6.24836 -2.57097,-1.23872 -4.96164,-1.94346 -11.73279,-3.45874 -3.0567,-0.68404 -6.50243,-1.53164 -7.65719,-1.88356 -10.24256,-3.1215 -17.87734,-8.6633 -22.31328,-16.19632 -3.1799,-5.40006 -4.60611,-11.12086 -4.6089,-18.48725 -0.004,-9.82626 2.35831,-18.12456 7.23883,-25.43135 1.75742,-2.63108 2.89718,-3.99431 5.58811,-6.68373 3.87775,-3.87556 6.82324,-6.04486 12.1192,-8.92553 2.82629,-1.53734 8.14996,-3.53081 11.73278,-4.39341 3.32092,-0.79954 4.10348,-0.95294 6.79266,-1.33149 17.43146,-2.4538 35.36323,0.8336 52.69455,9.66038 2.01025,1.02382 2.64807,1.46245 2.56411,1.76342 -0.0614,0.22035 -2.53052,6.18057 -5.48684,13.24494 -2.95632,7.06437 -5.90302,14.12256 -6.54822,15.68488 -0.64523,1.56231 -1.38102,3.31386 -1.63511,3.89231 l -0.462,1.05176 -2.80769,-1.87704 c -6.40455,-4.28164 -13.0847,-7.05364 -19.32678,-8.01986 -2.53765,-0.39281 -8.57795,-0.18566 -10.26058,0.35188 -3.4255,1.09431 -4.99137,3.16417 -4.81526,6.36503 0.0557,1.01239 2.03479,3.01768 4.10737,4.16176 2.68502,1.48218 8.18627,3.33207 13.21897,4.44512 4.29019,0.94883 10.50311,2.51865 12.12314,3.06315 5.47484,1.8401 9.93801,4.62594 14.06042,8.77625 4.06794,4.0955 6.42124,7.85005 8.10728,12.93468 2.58832,7.80569 2.34231,19.22638 -0.60504,28.08847 -5.00007,15.03419 -18.94469,27.11174 -36.08223,31.25105 -2.85754,0.6902 -5.84464,1.22181 -9.08935,1.61763 -2.85154,0.34787 -12.91708,0.48589 -15.80838,0.21675 z m 610.35163,-0.0166 c -13.2478,-1.12044 -26.00809,-5.84179 -36.18637,-13.38903 -11.94721,-8.85894 -20.40686,-20.85236 -24.32443,-34.48533 -1.80978,-6.29815 -2.55171,-11.31738 -2.75885,-18.66392 -0.48965,-17.37092 4.41592,-32.83313 14.38021,-45.32558 2.441,-3.06035 7.94922,-8.43357 11.26793,-10.99177 12.06442,-9.29978 26.05128,-14.09296 42.43816,-14.54321 18.16293,-0.49905 34.84821,5.14378 48.44271,16.38295 2.08693,1.72533 6.84493,6.59725 8.69679,8.90502 5.9185,7.37548 10.523,16.75763 12.74107,25.96105 3.42767,14.22296 2.36847,30.80429 -2.78614,43.61001 -3.69515,9.1801 -8.00693,15.65077 -15.20229,22.8139 -11.56893,11.51716 -26.47579,18.21053 -43.98793,19.75115 -3.28,0.28856 -9.14836,0.27692 -12.72086,-0.0252 z m 10.45022,-44.06508 c 4.49421,-0.72888 7.87621,-2.34963 10.94643,-5.24593 5.19014,-4.89612 7.75214,-12.29767 7.28835,-21.05586 -0.62864,-11.87319 -6.37885,-19.90782 -16.20757,-22.64667 -2.16714,-0.6039 -8.12657,-0.7223 -10.65114,-0.2116 -8.18086,1.65493 -14.44709,8.00698 -16.52352,16.74986 -1.1265,4.74296 -1.09107,11.36598 0.0855,15.99148 2.99457,11.77311 13.05759,18.36561 25.06195,16.41872 z m -547.07058,-24.81966 0,-65.70358 43.72005,0 43.72005,0 0,17.78443 0,17.78443 -20.7485,0 -20.7485,0 0,6.42215 0,6.42216 18.89595,0 18.89596,0 0,16.7964 0,16.7964 -18.89596,0 -18.89595,0 0,6.91616 0,6.91617 21.36601,0 21.36601,0 0,17.78443 0,17.78443 -44.33756,0 -44.33756,0 0,-65.70358 z m 100.2844,-0.004 0,-65.70713 30.93748,0.0347 c 34.17577,0.0384 36.93415,0.12289 44.14794,1.35291 7.64073,1.30282 14.69537,3.96594 20.28378,7.65711 3.25914,2.15267 7.95043,6.75877 9.91484,9.73482 3.62889,5.49763 5.80126,11.727 6.62687,19.00284 0.44464,3.91828 0.16644,12.5581 -0.50557,15.70149 -1.4728,6.88916 -3.98206,11.90685 -8.12066,16.23869 -4.01677,4.20431 -8.23698,6.51079 -14.18906,7.75476 -1.11432,0.2329 -2.05877,0.44593 -2.09884,0.47343 -0.0401,0.0275 2.60957,4.14839 5.88803,9.15757 3.27847,5.00916 6.92368,10.57985 8.10049,12.37929 1.17683,1.79943 4.47389,6.82759 7.32681,11.17366 11.47894,17.48678 13.3417,20.33792 13.42102,20.54222 0.0461,0.11874 -11.57223,0.18516 -26.25636,0.15011 l -26.33911,-0.0629 -11.41204,-21.55993 -11.41202,-21.55992 -0.0631,21.62167 -0.0631,21.62168 -23.09372,0 -23.09368,0 0,-65.70713 z m 57.90124,-6.54188 c 5.19261,-1.10004 8.52573,-4.42888 9.41132,-9.39918 0.43649,-2.44974 0.43819,-3.44373 0.0101,-5.84492 -0.83812,-4.70033 -3.35656,-7.68627 -7.80877,-9.25831 -1.73472,-0.61251 -2.16051,-0.65511 -7.58083,-0.75849 l -5.74289,-0.10952 0,12.87035 0,12.87037 5.00187,-0.004 c 3.43504,-0.003 5.53671,-0.1176 6.70927,-0.366 z m 71.52988,6.54084 0,-65.70819 29.82596,0.0387 c 16.40428,0.0213 31.54883,0.13787 33.65456,0.2591 28.94181,1.66621 44.00225,11.93298 48.50929,33.06896 1.09071,5.1149 1.26255,7.12497 1.25554,14.68512 -0.007,7.68629 -0.23547,10.01109 -1.49701,15.24295 -0.80049,3.31974 -1.38209,4.97482 -2.80273,7.9756 -3.36085,7.09913 -7.89697,11.70425 -15.08712,15.31668 -2.98518,1.49979 -4.81463,2.18622 -8.58429,3.22092 -7.55302,2.07318 -12.47172,2.57653 -26.91905,2.75478 l -11.42403,0.14095 0,19.35629 0,19.35632 -23.46556,0 -23.46556,0 0,-65.70817 z m 60.51645,-7.89085 c 4.65038,-1.35056 7.27074,-4.15006 7.94519,-8.48829 0.73573,-4.73237 -1.41591,-9.06137 -5.50258,-11.07095 -2.99692,-1.47369 -4.36543,-1.69201 -10.60596,-1.69201 l -5.17497,0 0,11.02286 0,11.02285 5.74289,-0.12822 c 4.91794,-0.1098 6.00899,-0.2055 7.59543,-0.66624 z m 63.72753,7.89186 0,-65.70715 30.93749,0.0348 c 29.81095,0.0335 34.60319,0.12049 39.7062,0.7208 12.711,1.49528 22.48687,5.54552 29.66173,12.28914 6.063,5.69858 9.8195,13.2574 11.38143,22.90183 0.44343,2.73819 0.44064,13.50899 -0.007,15.80838 -1.618,8.36485 -3.99908,13.37664 -8.66543,18.2389 -3.75365,3.91125 -8.30293,6.34995 -13.95672,7.48165 -1.09507,0.2192 -2.03107,0.43437 -2.08007,0.47817 -0.0486,0.0438 1.17707,2.00324 2.72457,4.35435 1.5475,2.35112 3.69943,5.63578 4.78215,7.29926 1.08271,1.66347 3.96928,6.0785 6.41464,9.81117 11.21571,17.11997 14.55057,22.2077 17.61228,26.86932 l 3.286,5.00308 -26.24407,0.0629 c -14.4342,0.0346 -26.32388,-0.021 -26.42152,-0.1235 -0.0976,-0.10251 -4.64453,-8.63399 -10.10425,-18.95884 -5.45969,-10.32486 -10.57943,-19.99514 -11.37718,-21.48952 l -1.45045,-2.71707 -0.0217,1.11153 c -0.0119,0.61134 -0.0289,10.36499 -0.0376,21.67477 l -0.0158,20.56324 -23.06381,0 -23.0638,0 0,-65.70715 z m 59.49898,-6.97439 c 4.04796,-1.44807 6.56058,-4.06484 7.5799,-7.8941 0.45578,-1.71214 0.45283,-6.34658 -0.005,-8.06713 -1.11185,-4.1774 -3.7578,-6.87139 -8.19087,-8.33961 -0.91978,-0.30462 -2.57375,-0.428 -6.9499,-0.5184 -5.15253,-0.10645 -5.74452,-0.0779 -5.7588,0.27791 -0.009,0.21811 -0.0158,5.78747 -0.0158,12.37635 0,6.58888 0.007,12.21382 0.0158,12.49985 0.0158,0.51638 0.0566,0.51935 5.7588,0.41869 5.44752,-0.0962 5.83665,-0.13492 7.56599,-0.75356 z" />
</svg>
