<?xml version="1.0" encoding="UTF-8" standalone="no"?>
<svg
   xmlns:dc="http://purl.org/dc/elements/1.1/"
   xmlns:cc="http://creativecommons.org/ns#"
   xmlns:rdf="http://www.w3.org/1999/02/22-rdf-syntax-ns#"
   xmlns:svg="http://www.w3.org/2000/svg"
   xmlns="http://www.w3.org/2000/svg"
   xmlns:xlink="http://www.w3.org/1999/xlink"
   xmlns:sodipodi="http://sodipodi.sourceforge.net/DTD/sodipodi-0.dtd"
   xmlns:inkscape="http://www.inkscape.org/namespaces/inkscape"
   width="200"
   height="200"
   viewBox="0 0 200 200"
   id="svg2"
   version="1.1"
   inkscape:version="0.91 r13725"
   sodipodi:docname="studiosol.svg">
  <metadata
     id="metadata21">
    <rdf:RDF>
      <cc:Work
         rdf:about="">
        <dc:format>image/svg+xml</dc:format>
        <dc:type
           rdf:resource="http://purl.org/dc/dcmitype/StillImage" />
        <dc:title></dc:title>
      </cc:Work>
    </rdf:RDF>
  </metadata>
  <sodipodi:namedview
     pagecolor="#ffffff"
     bordercolor="#666666"
     borderopacity="1"
     objecttolerance="10"
     gridtolerance="10"
     guidetolerance="10"
     inkscape:pageopacity="0"
     inkscape:pageshadow="2"
     inkscape:window-width="1366"
     inkscape:window-height="744"
     id="namedview19"
     showgrid="false"
     inkscape:zoom="1.6"
     inkscape:cx="46.86587"
     inkscape:cy="106.53922"
     inkscape:window-x="0"
     inkscape:window-y="24"
     inkscape:window-maximized="1"
     inkscape:current-layer="svg2" />
  <defs
     id="defs4">
    <linearGradient
       id="a"
       x1="0.5"
       x2="0.5"
       y1="1"
       y2="0">
      <stop
         stop-color="#F70"
         offset="0%"
         id="stop7" />
      <stop
         stop-color="#F90"
         offset="100%"
         id="stop9" />
    </linearGradient>
    <linearGradient
       inkscape:collect="always"
       xlink:href="#a"
       id="linearGradient4149"
       x1="23.884996"
       y1="65.630554"
       x2="23.884996"
       y2="17.862875"
       gradientTransform="scale(1.9887444,0.50282984)"
       gradientUnits="userSpaceOnUse" />
    <linearGradient
       inkscape:collect="always"
       xlink:href="#a"
       id="linearGradient4151"
       x1="160.74673"
       y1="44.759312"
       x2="160.74673"
       y2="0.2957235"
       gradientTransform="scale(1.0656993,0.93835097)"
       gradientUnits="userSpaceOnUse" />
  </defs>
  <rect
     style="fill:#33363b;fill-opacity:1"
     id="rect4153"
     width="194.97942"
     height="194.94855"
     x="2.5102921"
     y="2.5257263"
     rx="0" />
  <g
     id="g11"
     style="fill:none;fill-rule:evenodd"
     transform="matrix(0.85020056,0,0,0.85020056,14.605624,84.52785)">
    <path
       d="M 63,31.247 C 61.448,32.35 59.55,33 57.5,33 52.253,33 48,28.747 48,23.5 48,18.253 52.253,14 57.5,14 c 2.05,0 3.948,0.65 5.5,1.753 L 63,9.5 C 63,9.222 63.22,9 63.49,9 l 3.02,0 C 66.785,9 67,9.224 67,9.5 l 0,23 c 0,0.278 -0.22,0.5 -0.49,0.5 l -3.02,0 C 63.215,33 63,32.776 63,32.5 l 0,-1.253 z M 26.5,14 c 0.275,0 0.498,0.215 0.498,0.49 L 27,17.51 C 27,17.78 26.785,18 26.502,18 L 22,18 l 0,6 c 0,2.97 1.03,5.006 4.005,5.006 0.404,0 1.246,-0.3 1.246,-0.3 0.246,-0.095 0.547,0.023 0.678,0.27 l 1.44,2.72 c 0.128,0.245 0.025,0.537 -0.22,0.647 l -0.004,0.003 C 28.309,32.679 26.969,33 24.902,33 22.952,33 20.939,31.975 19.725,30.495 18.43,28.922 18,26.85 18,25.465 L 18,9.472 C 18,9.2 18.215,8.98 18.49,8.982 l 3.02,0.015 C 21.78,8.999 22,9.215 22,9.497 l 0,4.503 4.5,0 z m 31,14.5 c 2.76,0 5,-2.24 5,-5 0,-2.76 -2.24,-5 -5,-5 -2.76,0 -5,2.24 -5,5 0,2.76 2.24,5 5,5 z m 28,4.5 C 90.747,33 95,28.747 95,23.5 95,18.253 90.747,14 85.5,14 80.253,14 76,18.253 76,23.5 c 0,5.247 4.253,9.5 9.5,9.5 z m 0,-4.5 c 2.76,0 5,-2.24 5,-5 0,-2.76 -2.24,-5 -5,-5 -2.76,0 -5,2.24 -5,5 0,2.76 2.24,5 5,5 z m -47.907,0.136 c -2.806,0 -3.557,-2.55 -3.593,-4.09 -0.013,-0.544 0,-10.05 0,-10.05 C 34,14.223 33.785,14 33.51,14 l -3.02,0 C 30.22,14 30,14.222 30,14.5 l 0,11.136 c 0,1.536 0,7.364 6.508,7.364 4.068,0 5.153,-1.364 5.153,-1.364 l 0,1.088 c 0,0.152 0.126,0.276 0.286,0.276 l 3.77,0 c 0.157,0 0.284,-0.12 0.284,-0.27 l 0,-18.22 c 0,-0.28 -0.215,-0.508 -0.49,-0.508 l -3.02,0 c -0.27,0 -0.49,0.228 -0.488,0.496 0,0 0.03,9.487 -0.002,10.05 -0.09,1.52 -1.042,4.09 -4.407,4.09 z M 74.01,15.5 c 0,-0.276 -0.214,-0.5 -0.49,-0.5 l -3.018,0 c -0.27,0 -0.49,0.228 -0.49,0.5 l 0,17 c 0,0.276 0.215,0.5 0.49,0.5 l 3.02,0 c 0.27,0 0.49,-0.228 0.49,-0.5 l 0,-17 z M 70.58,12.42 C 70.966,12.808 71.436,13 72,13 72.564,13 73.034,12.808 73.42,12.42 73.808,12.034 74,11.564 74,11 74,10.436 73.808,9.966 73.42,9.58 73.035,9.19 72.565,9 72,9 71.435,9 70.966,9.192 70.58,9.58 70.192,9.966 70,10.436 70,11 c 0,0.564 0.192,1.034 0.58,1.42 z M 16,26.993 C 16,25.178 14.635,23.007 12.142,22.2 11.622,22.03 10.76,21.726 9.54,21.36 8.32,20.995 7.446,20.676 6.92,20.402 6.394,20.128 5.49,18.537 8.29,18.538 c 1.614,0 3.197,0.493 4.756,1.405 0.146,0.086 0.323,0.044 0.404,-0.092 l 2.027,-3.385 c 0.097,-0.162 0.055,-0.343 -0.08,-0.428 L 15.351,16.01 C 13.176,14.67 11,14 8.823,14 6.55,14 4.696,14.536 3.26,15.61 c -1.436,1.072 -2.154,2.458 -2.154,4.158 0,1.7 0.73,2.985 2.19,3.852 0.717,0.433 1.357,0.764 1.92,0.993 0.56,0.228 1.375,0.502 2.44,0.82 1.064,0.32 1.878,0.663 2.44,1.028 0.562,0.366 0.844,0.68 0.844,1.2 0,1.348 -3.566,1.644 -8.035,-1.184 -0.11,-0.07 -0.285,-0.05 -0.368,0.06 -0.822,1.103 -1.644,2.205 -2.467,3.306 -0.108,0.145 -0.082,0.325 0.044,0.42 1.186,0.874 2.51,1.54 3.97,2.002 1.556,0.49 3.05,0.736 4.487,0.736 C 15.15,33 16,28.806 16,26.992 Z"
       id="path13"
       inkscape:connector-curvature="0"
       style="fill:url(#linearGradient4149)" />
    <path
       d="M 134,8.5 C 134,8.224 134.215,8 134.49,8 l 3.02,0 c 0.27,0 0.49,0.216 0.49,0.5 l 0,24 c 0,0.276 -0.215,0.5 -0.49,0.5 l -3.02,0 C 134.22,33 134,32.784 134,32.5 l 0,-24 z m -22,18.49 c 0,-1.815 -1.365,-3.986 -3.858,-4.793 -0.52,-0.17 -1.382,-0.474 -2.602,-0.84 -1.22,-0.365 -2.094,-0.684 -2.62,-0.958 -0.526,-0.274 -1.43,-1.865 1.37,-1.864 1.614,0 3.197,0.493 4.756,1.405 0.146,0.086 0.323,0.044 0.404,-0.092 l 2.027,-3.385 c 0.097,-0.162 0.055,-0.343 -0.08,-0.428 l -0.046,-0.028 C 109.176,14.67 107,14 104.823,14 c -2.273,0 -4.127,0.536 -5.563,1.61 -1.436,1.072 -2.154,2.458 -2.154,4.158 0,1.7 0.73,2.985 2.19,3.852 0.717,0.433 1.357,0.764 1.92,0.993 0.56,0.228 1.375,0.502 2.44,0.82 1.064,0.32 1.878,0.663 2.44,1.028 0.562,0.366 0.844,0.68 0.844,1.2 0,1.348 -3.566,1.644 -8.035,-1.184 -0.11,-0.07 -0.285,-0.05 -0.368,0.06 -0.822,1.103 -1.644,2.205 -2.467,3.306 -0.108,0.145 -0.082,0.325 0.044,0.42 1.186,0.874 2.51,1.54 3.97,2.002 1.556,0.49 3.05,0.736 4.487,0.736 6.578,0 7.43,-4.194 7.43,-6.008 z M 122.5,33 c 5.247,0 9.5,-4.253 9.5,-9.5 0,-5.247 -4.253,-9.5 -9.5,-9.5 -5.247,0 -9.5,4.253 -9.5,9.5 0,5.247 4.253,9.5 9.5,9.5 z m 0,-4.5 c 2.76,0 5,-2.24 5,-5 0,-2.76 -2.24,-5 -5,-5 -2.76,0 -5,2.24 -5,5 0,2.76 2.24,5 5,5 z"
       id="path15"
       inkscape:connector-curvature="0"
       style="fill:#ffffff" />
    <path
       d="m 171.367,10.9 c 3.784,3.31 6.1,7.504 6.337,11.538 0.222,4.316 -1.992,8.302 -6.048,10.923 -4.66,3.012 -10.55,3.517 -15,1.27 -5.34,-2.656 -9.476,-7.907 -9.004,-12.473 0.377,-4.122 4.61,-8.314 9.12,-9.66 3.355,-0.935 7.714,-0.34 9.937,1.478 2.223,1.818 2.7,2.84 3.3,3.763 1.287,1.974 1.605,3.827 0.716,5.227 -0.695,1.152 -2.704,2.034 -5.073,2.505 -2.514,0.5 -4.958,0.428 -6.568,-0.212 -1.87,-0.742 -2.708,-2.26 -2.282,-4.152 0.394,-1.83 1.916,-4.012 3.444,-4.46 0.84,-0.247 1.656,-0.02 2.303,0.623 0.59,0.585 0.89,1.27 0.87,2.017 -0.018,0.59 -0.233,1.14 -0.576,1.643 -0.202,0.297 -0.39,0.5 -0.57,0.665 -0.334,0.297 -0.835,0.32 -1.197,0.052 -0.358,-0.267 -0.478,-0.746 -0.29,-1.148 0.22,-0.462 0.34,-1.15 0.24,-1.25 -0.185,-0.184 -0.313,-0.224 -0.47,-0.177 -0.575,0.168 -1.374,1.286 -1.577,2.23 -0.19,0.848 0.024,1.295 0.708,1.567 2.07,0.82 7.252,-0.614 8.046,-1.933 0.168,-0.264 0.25,-0.56 0.25,-0.89 0,-1.294 -1.303,-3.135 -2.726,-4.254 -2.132,-1.406 -4.36,-1.764 -6.814,-1.08 -3.753,1.12 -6.85,3.782 -7.106,6.596 -0.388,3.75 2.05,7.852 5.797,9.716 3.464,1.75 8.302,1.326 12.01,-1.07 3.053,-1.973 4.765,-4.87 4.765,-8.02 0,-0.157 -0.004,-0.306 -0.01,-0.445 -0.21,-3.526 -2,-6.532 -4.718,-8.98 -2.564,-2.31 -5.935,-4.016 -9.228,-4.67 -0.462,-0.09 -0.767,-0.492 -0.76,-0.967 0.05,-0.524 0.456,-0.89 0.943,-0.89 3.478,0 7.766,1.887 11.23,4.917 z m 23.553,9.8 c 0.253,0.74 -0.09,1.498 -1.078,2.104 -0.502,0.307 -1.1,0.33 -2.456,0.227 l -0.424,-0.026 -0.764,-0.01 -3.17,-0.056 -1.26,-0.054 c -0.387,-0.028 -0.546,-0.05 -0.75,-0.13 -0.374,-0.15 -0.61,-0.47 -0.61,-0.904 0,-0.423 0.222,-0.735 0.585,-0.904 0.204,-0.094 0.368,-0.13 0.82,-0.203 l 1.365,-0.192 c 0.75,-0.097 1.136,-0.15 1.48,-0.21 0.196,-0.025 0.4,-0.06 0.617,-0.11 0.305,-0.066 0.545,-0.13 1.13,-0.293 0.85,-0.24 1.26,-0.342 1.777,-0.425 1.16,-0.185 2.41,0.244 2.738,1.19 z M 183.985,7.51 183.039,8.37 c -0.295,0.253 -0.424,0.35 -0.626,0.44 -0.37,0.162 -0.764,0.11 -1.067,-0.19 -0.294,-0.29 -0.352,-0.66 -0.21,-1.03 0.08,-0.206 0.17,-0.34 0.446,-0.718 l 0.842,-1.094 c 0.484,-0.617 0.71,-0.908 0.912,-1.188 0.3,-0.384 0.526,-0.743 0.97,-1.515 0.193,-0.33 0.213,-0.365 0.294,-0.5 0.25,-0.416 0.458,-0.74 0.683,-1.043 0.702,-0.945 1.893,-1.534 2.78,-1.12 0.7,0.326 0.98,1.09 0.692,2.2 -0.143,0.563 -0.563,1.01 -1.596,1.887 l -0.323,0.28 -0.558,0.538 -2.295,2.192 z m 4.466,30.92 c 0.946,0.7 1.533,1.885 1.12,2.768 -0.326,0.697 -1.093,0.978 -2.214,0.69 -0.563,-0.147 -1.014,-0.57 -1.89,-1.598 l -0.28,-0.32 -0.534,-0.555 -2.206,-2.303 -0.85,-0.934 c -0.254,-0.29 -0.354,-0.422 -0.443,-0.624 -0.16,-0.368 -0.11,-0.756 0.19,-1.057 0.29,-0.295 0.664,-0.353 1.038,-0.21 0.21,0.08 0.35,0.172 0.723,0.447 l 1.096,0.84 c 0.556,0.438 0.9,0.703 1.19,0.913 0.317,0.248 0.655,0.467 1.18,0.775 0.09,0.052 0.135,0.08 0.333,0.193 0.768,0.444 1.124,0.663 1.548,0.975 z"
       id="path17"
       inkscape:connector-curvature="0"
       style="fill:url(#linearGradient4151)" />
  </g>
</svg>
